<?xml version="1.0" encoding="UTF-8"?>
<svg viewBox="0 0 126 132" version="1.1" xmlns="http://www.w3.org/2000/svg" xmlns:xlink="http://www.w3.org/1999/xlink">
    <title>EML</title>
    <g id="EML" stroke="none" stroke-width="1" fill-rule="evenodd">
        <path d="M31.0224609,45 L31.0224609,37.5 L15.4365234,37.5 L15.4365234,26.4550781 L29.9384766,26.4550781 L29.9384766,19.0136719 L15.4365234,19.0136719 L15.4365234,9.609375 L31.0224609,9.609375 L31.0224609,2.16796875 L6.35449219,2.16796875 L6.35449219,45 L31.0224609,45 Z M48.0732422,45 L48.0732422,25.078125 C48.0732422,22.7929688 47.8876953,18.2324219 47.5166016,11.3964844 L47.5166016,11.3964844 L47.7802734,11.3964844 L58.0927734,45 L66.4130859,45 L77.4580078,11.4550781 L77.7216797,11.4550781 C77.4873047,16.8457031 77.3554688,20.1660156 77.3261719,21.4160156 C77.296875,22.6660156 77.2822266,23.7695312 77.2822266,24.7265625 L77.2822266,24.7265625 L77.2822266,45 L85.7490234,45 L85.7490234,2.16796875 L73.3857422,2.16796875 L62.6337891,34.921875 L62.4580078,34.921875 L52.3212891,2.16796875 L39.9580078,2.16796875 L39.9580078,45 L48.0732422,45 Z M122.985352,45 L122.985352,37.5 L105.612305,37.5 L105.612305,2.16796875 L96.5302734,2.16796875 L96.5302734,45 L122.985352,45 Z" fill-rule="nonzero"></path>
        <path d="M15.0898438,73 L15.0898438,70 L8.85546875,70 L8.85546875,65.5820312 L14.65625,65.5820312 L14.65625,62.6054688 L8.85546875,62.6054688 L8.85546875,58.84375 L15.0898438,58.84375 L15.0898438,55.8671875 L5.22265625,55.8671875 L5.22265625,73 L15.0898438,73 Z M23.703125,73.234375 C24.6015625,73.234375 25.3457031,73.1640625 25.9355469,73.0234375 C26.5253906,72.8828125 27.109375,72.6289062 27.6875,72.2617188 L27.6875,72.2617188 L27.6875,69.203125 C27.1015625,69.59375 26.515625,69.8808594 25.9296875,70.0644531 C25.34375,70.2480469 24.7070312,70.3398438 24.0195312,70.3398438 C22.1601562,70.3398438 21.2304688,69.0585938 21.2304688,66.4960938 C21.2304688,63.8554688 22.1601562,62.5351562 24.0195312,62.5351562 C24.5039062,62.5351562 24.9882812,62.6074219 25.4726562,62.7519531 C25.9570312,62.8964844 26.4804688,63.0820312 27.0429688,63.3085938 L27.0429688,63.3085938 L28.0976562,60.5429688 C26.8945312,59.9492188 25.5351562,59.6523438 24.0195312,59.6523438 C21.9492188,59.6523438 20.359375,60.2402344 19.25,61.4160156 C18.140625,62.5917969 17.5859375,64.2929688 17.5859375,66.5195312 C17.5859375,70.9960938 19.625,73.234375 23.703125,73.234375 Z M36.2421875,73.234375 C38.25,73.234375 39.8164062,72.6328125 40.9414062,71.4296875 C42.0664062,70.2265625 42.6289062,68.5585938 42.6289062,66.4257812 C42.6289062,65.0507812 42.3710938,63.8515625 41.8554688,62.828125 C41.3398438,61.8046875 40.6015625,61.0195312 39.640625,60.4726562 C38.6796875,59.9257812 37.5703125,59.6523438 36.3125,59.6523438 C34.2890625,59.6523438 32.71875,60.2460938 31.6015625,61.4335938 C30.484375,62.6210938 29.9257812,64.2851562 29.9257812,66.4257812 C29.9257812,67.8007812 30.1835938,69.0039062 30.6992188,70.0351562 C31.2148438,71.0664062 31.953125,71.8574219 32.9140625,72.4082031 C33.875,72.9589844 34.984375,73.234375 36.2421875,73.234375 Z M36.2890625,70.3632812 C35.328125,70.3632812 34.6347656,70.03125 34.2089844,69.3671875 C33.7832031,68.703125 33.5703125,67.7226562 33.5703125,66.4257812 C33.5703125,65.1210938 33.78125,64.1464844 34.203125,63.5019531 C34.625,62.8574219 35.3125,62.5351562 36.265625,62.5351562 C37.2265625,62.5351562 37.9179688,62.859375 38.3398438,63.5078125 C38.7617188,64.15625 38.9726562,65.1289062 38.9726562,66.4257812 C38.9726562,67.7304688 38.7636719,68.7128906 38.3457031,69.3730469 C37.9277344,70.0332031 37.2421875,70.3632812 36.2890625,70.3632812 Z M49.15625,73 L49.15625,54.765625 L45.5820312,54.765625 L45.5820312,73 L49.15625,73 Z M58.4257812,73.234375 C60.4335938,73.234375 62,72.6328125 63.125,71.4296875 C64.25,70.2265625 64.8125,68.5585938 64.8125,66.4257812 C64.8125,65.0507812 64.5546875,63.8515625 64.0390625,62.828125 C63.5234375,61.8046875 62.7851562,61.0195312 61.8242188,60.4726562 C60.8632812,59.9257812 59.7539062,59.6523438 58.4960938,59.6523438 C56.4726562,59.6523438 54.9023438,60.2460938 53.7851562,61.4335938 C52.6679688,62.6210938 52.109375,64.2851562 52.109375,66.4257812 C52.109375,67.8007812 52.3671875,69.0039062 52.8828125,70.0351562 C53.3984375,71.0664062 54.1367188,71.8574219 55.0976562,72.4082031 C56.0585938,72.9589844 57.1679688,73.234375 58.4257812,73.234375 Z M58.4726562,70.3632812 C57.5117188,70.3632812 56.8183594,70.03125 56.3925781,69.3671875 C55.9667969,68.703125 55.7539062,67.7226562 55.7539062,66.4257812 C55.7539062,65.1210938 55.9648438,64.1464844 56.3867188,63.5019531 C56.8085938,62.8574219 57.4960938,62.5351562 58.4492188,62.5351562 C59.4101562,62.5351562 60.1015625,62.859375 60.5234375,63.5078125 C60.9453125,64.15625 61.15625,65.1289062 61.15625,66.4257812 C61.15625,67.7304688 60.9472656,68.7128906 60.5292969,69.3730469 C60.1113281,70.0332031 59.4257812,70.3632812 58.4726562,70.3632812 Z M71.5976562,78.765625 C73.9882812,78.765625 75.8222656,78.34375 77.0996094,77.5 C78.3769531,76.65625 79.015625,75.46875 79.015625,73.9375 C79.015625,72.7421875 78.6386719,71.8359375 77.8847656,71.21875 C77.1308594,70.6015625 76.0351562,70.2929688 74.5976562,70.2929688 L74.5976562,70.2929688 L72.3710938,70.2929688 C71.0585938,70.2929688 70.4023438,70.0351562 70.4023438,69.5195312 C70.4023438,69.1757812 70.5859375,68.8632812 70.953125,68.5820312 L70.953125,68.5820312 L71.4804688,68.640625 L72.125,68.6757812 C73.8671875,68.6757812 75.2285156,68.2832031 76.2089844,67.4980469 C77.1894531,66.7128906 77.6796875,65.6171875 77.6796875,64.2109375 C77.6796875,63.484375 77.4921875,62.828125 77.1171875,62.2421875 L77.1171875,62.2421875 L79.1679688,61.7148438 L79.1679688,59.8984375 L74.5976562,59.8984375 C74.4570312,59.8671875 74.1347656,59.8183594 73.6308594,59.7519531 C73.1269531,59.6855469 72.6914062,59.6523438 72.3242188,59.6523438 C70.5976562,59.6523438 69.2695312,60.0429688 68.3398438,60.8242188 C67.4101562,61.6054688 66.9453125,62.7109375 66.9453125,64.140625 C66.9453125,65.03125 67.1464844,65.8046875 67.5488281,66.4609375 C67.9511719,67.1171875 68.4960938,67.59375 69.1835938,67.890625 C68.6367188,68.2109375 68.21875,68.5371094 67.9296875,68.8691406 C67.640625,69.2011719 67.4960938,69.6171875 67.4960938,70.1171875 C67.4960938,70.515625 67.6328125,70.8925781 67.90625,71.2480469 C68.1796875,71.6035156 68.5,71.859375 68.8671875,72.015625 C67.9140625,72.2421875 67.1914062,72.6210938 66.6992188,73.1523438 C66.2070312,73.6835938 65.9609375,74.34375 65.9609375,75.1328125 C65.9609375,76.28125 66.4433594,77.1738281 67.4082031,77.8105469 C68.3730469,78.4472656 69.7695312,78.765625 71.5976562,78.765625 Z M72.3242188,66.4960938 C71.6601562,66.4960938 71.1660156,66.2890625 70.8417969,65.875 C70.5175781,65.4609375 70.3554688,64.8984375 70.3554688,64.1875 C70.3554688,62.609375 71.0117188,61.8203125 72.3242188,61.8203125 C73.6210938,61.8203125 74.2695312,62.609375 74.2695312,64.1875 C74.2695312,64.8984375 74.1132812,65.4609375 73.8007812,65.875 C73.4882812,66.2890625 72.9960938,66.4960938 72.3242188,66.4960938 Z M71.75,76.4335938 C70.8984375,76.4335938 70.2363281,76.2929688 69.7636719,76.0117188 C69.2910156,75.7304688 69.0546875,75.34375 69.0546875,74.8515625 C69.0546875,74.34375 69.2753906,73.9355469 69.7167969,73.6269531 C70.1582031,73.3183594 70.7070312,73.1640625 71.3632812,73.1640625 L71.3632812,73.1640625 L73.2148438,73.1640625 C74.1132812,73.1640625 74.7773438,73.2578125 75.2070312,73.4453125 C75.6367188,73.6328125 75.8515625,73.9726562 75.8515625,74.4648438 C75.8515625,75.0742188 75.4882812,75.5546875 74.7617188,75.90625 C74.0351562,76.2578125 73.03125,76.4335938 71.75,76.4335938 Z M83.1171875,58.2695312 C83.765625,58.2695312 84.2519531,58.1152344 84.5761719,57.8066406 C84.9003906,57.4980469 85.0625,57.0664062 85.0625,56.5117188 C85.0625,55.3476562 84.4140625,54.765625 83.1171875,54.765625 C81.8203125,54.765625 81.171875,55.3476562 81.171875,56.5117188 C81.171875,57.6835938 81.8203125,58.2695312 83.1171875,58.2695312 Z M84.8984375,73 L84.8984375,59.8984375 L81.3242188,59.8984375 L81.3242188,73 L84.8984375,73 Z M93.96875,73.234375 C94.8671875,73.234375 95.6113281,73.1640625 96.2011719,73.0234375 C96.7910156,72.8828125 97.375,72.6289062 97.953125,72.2617188 L97.953125,72.2617188 L97.953125,69.203125 C97.3671875,69.59375 96.78125,69.8808594 96.1953125,70.0644531 C95.609375,70.2480469 94.9726562,70.3398438 94.2851562,70.3398438 C92.4257812,70.3398438 91.4960938,69.0585938 91.4960938,66.4960938 C91.4960938,63.8554688 92.4257812,62.5351562 94.2851562,62.5351562 C94.7695312,62.5351562 95.2539062,62.6074219 95.7382812,62.7519531 C96.2226562,62.8964844 96.7460938,63.0820312 97.3085938,63.3085938 L97.3085938,63.3085938 L98.3632812,60.5429688 C97.1601562,59.9492188 95.8007812,59.6523438 94.2851562,59.6523438 C92.2148438,59.6523438 90.625,60.2402344 89.515625,61.4160156 C88.40625,62.5917969 87.8515625,64.2929688 87.8515625,66.5195312 C87.8515625,70.9960938 89.890625,73.234375 93.96875,73.234375 Z M104.175781,73.234375 C105.199219,73.234375 106.029297,73.0878906 106.666016,72.7949219 C107.302734,72.5019531 107.921875,71.9765625 108.523438,71.21875 L108.523438,71.21875 L108.617188,71.21875 L109.308594,73 L111.804688,73 L111.804688,64.2695312 C111.804688,62.7070312 111.335938,61.5429688 110.398438,60.7773438 C109.460938,60.0117188 108.113281,59.6289062 106.355469,59.6289062 C104.519531,59.6289062 102.847656,60.0234375 101.339844,60.8125 L101.339844,60.8125 L102.523438,63.2265625 C103.9375,62.59375 105.167969,62.2773438 106.214844,62.2773438 C107.574219,62.2773438 108.253906,62.9414062 108.253906,64.2695312 L108.253906,64.2695312 L108.253906,64.84375 L105.980469,64.9140625 C104.019531,64.984375 102.552734,65.3496094 101.580078,66.0097656 C100.607422,66.6699219 100.121094,67.6953125 100.121094,69.0859375 C100.121094,70.4140625 100.482422,71.4375 101.205078,72.15625 C101.927734,72.875 102.917969,73.234375 104.175781,73.234375 Z M105.523438,70.6210938 C104.367188,70.6210938 103.789062,70.1171875 103.789062,69.109375 C103.789062,68.40625 104.042969,67.8828125 104.550781,67.5390625 C105.058594,67.1953125 105.832031,67.0078125 106.871094,66.9765625 L106.871094,66.9765625 L108.253906,66.9296875 L108.253906,68.0078125 C108.253906,68.796875 108.005859,69.4296875 107.509766,69.90625 C107.013672,70.3828125 106.351562,70.6210938 105.523438,70.6210938 Z M119.058594,73 L119.058594,54.765625 L115.484375,54.765625 L115.484375,73 L119.058594,73 Z M9.2421875,99 L9.2421875,91.03125 C9.2421875,90.1171875 9.16796875,88.2929688 9.01953125,85.5585938 L9.01953125,85.5585938 L9.125,85.5585938 L13.25,99 L16.578125,99 L20.9960938,85.5820312 L21.1015625,85.5820312 C21.0078125,87.7382812 20.9550781,89.0664062 20.9433594,89.5664062 C20.9316406,90.0664062 20.9257812,90.5078125 20.9257812,90.890625 L20.9257812,90.890625 L20.9257812,99 L24.3125,99 L24.3125,81.8671875 L19.3671875,81.8671875 L15.0664062,94.96875 L14.9960938,94.96875 L10.9414062,81.8671875 L5.99609375,81.8671875 L5.99609375,99 L9.2421875,99 Z M34.2734375,99.234375 C35.296875,99.234375 36.1640625,99.1582031 36.875,99.0058594 C37.5859375,98.8535156 38.2539062,98.6210938 38.8789062,98.3085938 L38.8789062,98.3085938 L38.8789062,95.5429688 C38.1132812,95.9023438 37.3789062,96.1640625 36.6757812,96.328125 C35.9726562,96.4921875 35.2265625,96.5742188 34.4375,96.5742188 C33.421875,96.5742188 32.6328125,96.2890625 32.0703125,95.71875 C31.5078125,95.1484375 31.2070312,94.3554688 31.1679688,93.3398438 L31.1679688,93.3398438 L39.6171875,93.3398438 L39.6171875,91.6054688 C39.6171875,89.7460938 39.1015625,88.2890625 38.0703125,87.234375 C37.0390625,86.1796875 35.5976562,85.6523438 33.7460938,85.6523438 C31.8085938,85.6523438 30.2910156,86.2519531 29.1933594,87.4511719 C28.0957031,88.6503906 27.546875,90.3476562 27.546875,92.5429688 C27.546875,94.6757812 28.140625,96.3242188 29.328125,97.4882812 C30.515625,98.6523438 32.1640625,99.234375 34.2734375,99.234375 Z M36.265625,90.9609375 L31.25,90.9609375 C31.3125,90.078125 31.5585938,89.3964844 31.9882812,88.9160156 C32.4179688,88.4355469 33.0117188,88.1953125 33.7695312,88.1953125 C34.5273438,88.1953125 35.1289062,88.4355469 35.5742188,88.9160156 C36.0195312,89.3964844 36.25,90.078125 36.265625,90.9609375 L36.265625,90.9609375 Z M47.0117188,99.234375 C48.3085938,99.234375 49.4023438,99.0351562 50.2929688,98.6367188 L50.2929688,98.6367188 L50.2929688,95.9765625 C49.4179688,96.25 48.6679688,96.3867188 48.0429688,96.3867188 C47.5742188,96.3867188 47.1972656,96.265625 46.9121094,96.0234375 C46.6269531,95.78125 46.484375,95.40625 46.484375,94.8984375 L46.484375,94.8984375 L46.484375,88.5820312 L50.1523438,88.5820312 L50.1523438,85.8984375 L46.484375,85.8984375 L46.484375,83.109375 L44.1992188,83.109375 L43.1679688,85.875 L41.1992188,87.0703125 L41.1992188,88.5820312 L42.9101562,88.5820312 L42.9101562,94.8984375 C42.9101562,96.34375 43.2363281,97.4277344 43.8886719,98.1503906 C44.5410156,98.8730469 45.5820312,99.234375 47.0117188,99.234375 Z M56.1289062,99.234375 C57.1523438,99.234375 57.9824219,99.0878906 58.6191406,98.7949219 C59.2558594,98.5019531 59.875,97.9765625 60.4765625,97.21875 L60.4765625,97.21875 L60.5703125,97.21875 L61.2617188,99 L63.7578125,99 L63.7578125,90.2695312 C63.7578125,88.7070312 63.2890625,87.5429688 62.3515625,86.7773438 C61.4140625,86.0117188 60.0664062,85.6289062 58.3085938,85.6289062 C56.4726562,85.6289062 54.8007812,86.0234375 53.2929688,86.8125 L53.2929688,86.8125 L54.4765625,89.2265625 C55.890625,88.59375 57.1210938,88.2773438 58.1679688,88.2773438 C59.5273438,88.2773438 60.2070312,88.9414062 60.2070312,90.2695312 L60.2070312,90.2695312 L60.2070312,90.84375 L57.9335938,90.9140625 C55.9726562,90.984375 54.5058594,91.3496094 53.5332031,92.0097656 C52.5605469,92.6699219 52.0742188,93.6953125 52.0742188,95.0859375 C52.0742188,96.4140625 52.4355469,97.4375 53.1582031,98.15625 C53.8808594,98.875 54.8710938,99.234375 56.1289062,99.234375 Z M57.4765625,96.6210938 C56.3203125,96.6210938 55.7421875,96.1171875 55.7421875,95.109375 C55.7421875,94.40625 55.9960938,93.8828125 56.5039062,93.5390625 C57.0117188,93.1953125 57.7851562,93.0078125 58.8242188,92.9765625 L58.8242188,92.9765625 L60.2070312,92.9296875 L60.2070312,94.0078125 C60.2070312,94.796875 59.9589844,95.4296875 59.4628906,95.90625 C58.9667969,96.3828125 58.3046875,96.6210938 57.4765625,96.6210938 Z M71.5859375,99.234375 C73.25,99.234375 74.4882812,98.5898438 75.3007812,97.3007812 L75.3007812,97.3007812 L75.453125,97.3007812 L76.1445312,99 L78.8867188,99 L78.8867188,80.765625 L75.3007812,80.765625 L75.3007812,84.9609375 C75.3007812,85.7265625 75.390625,86.5976562 75.5703125,87.5742188 L75.5703125,87.5742188 L75.453125,87.5742188 C74.5859375,86.2929688 73.328125,85.6523438 71.6796875,85.6523438 C70.109375,85.6523438 68.8769531,86.2519531 67.9824219,87.4511719 C67.0878906,88.6503906 66.640625,90.3242188 66.640625,92.4726562 C66.640625,94.5898438 67.0800781,96.2460938 67.9589844,97.4414062 C68.8378906,98.6367188 70.046875,99.234375 71.5859375,99.234375 Z M72.8398438,96.3867188 C72.0117188,96.3867188 71.375,96.0644531 70.9296875,95.4199219 C70.484375,94.7753906 70.2617188,93.8085938 70.2617188,92.5195312 C70.2617188,91.2304688 70.4824219,90.2480469 70.9238281,89.5722656 C71.3652344,88.8964844 71.984375,88.5585938 72.78125,88.5585938 C73.7578125,88.5585938 74.4628906,88.8632812 74.8964844,89.4726562 C75.3300781,90.0820312 75.546875,91.0898438 75.546875,92.4960938 L75.546875,92.4960938 L75.546875,92.8828125 C75.5078125,94.15625 75.2753906,95.0585938 74.8496094,95.5898438 C74.4238281,96.1210938 73.7539062,96.3867188 72.8398438,96.3867188 Z M85.8125,99.234375 C86.8359375,99.234375 87.6660156,99.0878906 88.3027344,98.7949219 C88.9394531,98.5019531 89.5585938,97.9765625 90.1601562,97.21875 L90.1601562,97.21875 L90.2539062,97.21875 L90.9453125,99 L93.4414062,99 L93.4414062,90.2695312 C93.4414062,88.7070312 92.9726562,87.5429688 92.0351562,86.7773438 C91.0976562,86.0117188 89.75,85.6289062 87.9921875,85.6289062 C86.15625,85.6289062 84.484375,86.0234375 82.9765625,86.8125 L82.9765625,86.8125 L84.1601562,89.2265625 C85.5742188,88.59375 86.8046875,88.2773438 87.8515625,88.2773438 C89.2109375,88.2773438 89.890625,88.9414062 89.890625,90.2695312 L89.890625,90.2695312 L89.890625,90.84375 L87.6171875,90.9140625 C85.65625,90.984375 84.1894531,91.3496094 83.2167969,92.0097656 C82.2441406,92.6699219 81.7578125,93.6953125 81.7578125,95.0859375 C81.7578125,96.4140625 82.1191406,97.4375 82.8417969,98.15625 C83.5644531,98.875 84.5546875,99.234375 85.8125,99.234375 Z M87.1601562,96.6210938 C86.0039062,96.6210938 85.4257812,96.1171875 85.4257812,95.109375 C85.4257812,94.40625 85.6796875,93.8828125 86.1875,93.5390625 C86.6953125,93.1953125 87.46875,93.0078125 88.5078125,92.9765625 L88.5078125,92.9765625 L89.890625,92.9296875 L89.890625,94.0078125 C89.890625,94.796875 89.6425781,95.4296875 89.1464844,95.90625 C88.6503906,96.3828125 87.9882812,96.6210938 87.1601562,96.6210938 Z M101.609375,99.234375 C102.90625,99.234375 104,99.0351562 104.890625,98.6367188 L104.890625,98.6367188 L104.890625,95.9765625 C104.015625,96.25 103.265625,96.3867188 102.640625,96.3867188 C102.171875,96.3867188 101.794922,96.265625 101.509766,96.0234375 C101.224609,95.78125 101.082031,95.40625 101.082031,94.8984375 L101.082031,94.8984375 L101.082031,88.5820312 L104.75,88.5820312 L104.75,85.8984375 L101.082031,85.8984375 L101.082031,83.109375 L98.796875,83.109375 L97.765625,85.875 L95.796875,87.0703125 L95.796875,88.5820312 L97.5078125,88.5820312 L97.5078125,94.8984375 C97.5078125,96.34375 97.8339844,97.4277344 98.4863281,98.1503906 C99.1386719,98.8730469 100.179688,99.234375 101.609375,99.234375 Z M110.726562,99.234375 C111.75,99.234375 112.580078,99.0878906 113.216797,98.7949219 C113.853516,98.5019531 114.472656,97.9765625 115.074219,97.21875 L115.074219,97.21875 L115.167969,97.21875 L115.859375,99 L118.355469,99 L118.355469,90.2695312 C118.355469,88.7070312 117.886719,87.5429688 116.949219,86.7773438 C116.011719,86.0117188 114.664062,85.6289062 112.90625,85.6289062 C111.070312,85.6289062 109.398438,86.0234375 107.890625,86.8125 L107.890625,86.8125 L109.074219,89.2265625 C110.488281,88.59375 111.71875,88.2773438 112.765625,88.2773438 C114.125,88.2773438 114.804688,88.9414062 114.804688,90.2695312 L114.804688,90.2695312 L114.804688,90.84375 L112.53125,90.9140625 C110.570312,90.984375 109.103516,91.3496094 108.130859,92.0097656 C107.158203,92.6699219 106.671875,93.6953125 106.671875,95.0859375 C106.671875,96.4140625 107.033203,97.4375 107.755859,98.15625 C108.478516,98.875 109.46875,99.234375 110.726562,99.234375 Z M112.074219,96.6210938 C110.917969,96.6210938 110.339844,96.1171875 110.339844,95.109375 C110.339844,94.40625 110.59375,93.8828125 111.101562,93.5390625 C111.609375,93.1953125 112.382812,93.0078125 113.421875,92.9765625 L113.421875,92.9765625 L114.804688,92.9296875 L114.804688,94.0078125 C114.804688,94.796875 114.556641,95.4296875 114.060547,95.90625 C113.564453,96.3828125 112.902344,96.6210938 112.074219,96.6210938 Z M17.0410156,125 L17.0410156,122 L10.0917969,122 L10.0917969,107.867188 L6.45898438,107.867188 L6.45898438,125 L17.0410156,125 Z M22.9238281,125.234375 C23.9472656,125.234375 24.7773438,125.087891 25.4140625,124.794922 C26.0507812,124.501953 26.6699219,123.976562 27.2714844,123.21875 L27.2714844,123.21875 L27.3652344,123.21875 L28.0566406,125 L30.5527344,125 L30.5527344,116.269531 C30.5527344,114.707031 30.0839844,113.542969 29.1464844,112.777344 C28.2089844,112.011719 26.8613281,111.628906 25.1035156,111.628906 C23.2675781,111.628906 21.5957031,112.023438 20.0878906,112.8125 L20.0878906,112.8125 L21.2714844,115.226562 C22.6855469,114.59375 23.9160156,114.277344 24.9628906,114.277344 C26.3222656,114.277344 27.0019531,114.941406 27.0019531,116.269531 L27.0019531,116.269531 L27.0019531,116.84375 L24.7285156,116.914062 C22.7675781,116.984375 21.3007812,117.349609 20.328125,118.009766 C19.3554688,118.669922 18.8691406,119.695312 18.8691406,121.085938 C18.8691406,122.414062 19.2304688,123.4375 19.953125,124.15625 C20.6757812,124.875 21.6660156,125.234375 22.9238281,125.234375 Z M24.2714844,122.621094 C23.1152344,122.621094 22.5371094,122.117188 22.5371094,121.109375 C22.5371094,120.40625 22.7910156,119.882812 23.2988281,119.539062 C23.8066406,119.195312 24.5800781,119.007812 25.6191406,118.976562 L25.6191406,118.976562 L27.0019531,118.929688 L27.0019531,120.007812 C27.0019531,120.796875 26.7539062,121.429688 26.2578125,121.90625 C25.7617188,122.382812 25.0996094,122.621094 24.2714844,122.621094 Z M37.8066406,125 L37.8066406,118.835938 C37.8066406,117.289062 38.0292969,116.181641 38.4746094,115.513672 C38.9199219,114.845703 39.6425781,114.511719 40.6425781,114.511719 C41.3769531,114.511719 41.9121094,114.748047 42.2480469,115.220703 C42.5839844,115.693359 42.7519531,116.402344 42.7519531,117.347656 L42.7519531,117.347656 L42.7519531,125 L46.3261719,125 L46.3261719,116.457031 C46.3261719,114.902344 45.9316406,113.712891 45.1425781,112.888672 C44.3535156,112.064453 43.1972656,111.652344 41.6738281,111.652344 C40.7832031,111.652344 39.9882812,111.814453 39.2890625,112.138672 C38.5898438,112.462891 38.0410156,112.941406 37.6425781,113.574219 L37.6425781,113.574219 L37.4433594,113.574219 L36.9628906,111.898438 L34.2324219,111.898438 L34.2324219,125 L37.8066406,125 Z M53.8378906,130.765625 C56.2285156,130.765625 58.0625,130.34375 59.3398438,129.5 C60.6171875,128.65625 61.2558594,127.46875 61.2558594,125.9375 C61.2558594,124.742188 60.8789062,123.835938 60.125,123.21875 C59.3710938,122.601562 58.2753906,122.292969 56.8378906,122.292969 L56.8378906,122.292969 L54.6113281,122.292969 C53.2988281,122.292969 52.6425781,122.035156 52.6425781,121.519531 C52.6425781,121.175781 52.8261719,120.863281 53.1933594,120.582031 L53.1933594,120.582031 L53.7207031,120.640625 L54.3652344,120.675781 C56.1074219,120.675781 57.46875,120.283203 58.4492188,119.498047 C59.4296875,118.712891 59.9199219,117.617188 59.9199219,116.210938 C59.9199219,115.484375 59.7324219,114.828125 59.3574219,114.242188 L59.3574219,114.242188 L61.4082031,113.714844 L61.4082031,111.898438 L56.8378906,111.898438 C56.6972656,111.867188 56.375,111.818359 55.8710938,111.751953 C55.3671875,111.685547 54.9316406,111.652344 54.5644531,111.652344 C52.8378906,111.652344 51.5097656,112.042969 50.5800781,112.824219 C49.6503906,113.605469 49.1855469,114.710938 49.1855469,116.140625 C49.1855469,117.03125 49.3867188,117.804688 49.7890625,118.460938 C50.1914062,119.117188 50.7363281,119.59375 51.4238281,119.890625 C50.8769531,120.210938 50.4589844,120.537109 50.1699219,120.869141 C49.8808594,121.201172 49.7363281,121.617188 49.7363281,122.117188 C49.7363281,122.515625 49.8730469,122.892578 50.1464844,123.248047 C50.4199219,123.603516 50.7402344,123.859375 51.1074219,124.015625 C50.1542969,124.242188 49.4316406,124.621094 48.9394531,125.152344 C48.4472656,125.683594 48.2011719,126.34375 48.2011719,127.132812 C48.2011719,128.28125 48.6835938,129.173828 49.6484375,129.810547 C50.6132812,130.447266 52.0097656,130.765625 53.8378906,130.765625 Z M54.5644531,118.496094 C53.9003906,118.496094 53.40625,118.289062 53.0820312,117.875 C52.7578125,117.460938 52.5957031,116.898438 52.5957031,116.1875 C52.5957031,114.609375 53.2519531,113.820312 54.5644531,113.820312 C55.8613281,113.820312 56.5097656,114.609375 56.5097656,116.1875 C56.5097656,116.898438 56.3535156,117.460938 56.0410156,117.875 C55.7285156,118.289062 55.2363281,118.496094 54.5644531,118.496094 Z M53.9902344,128.433594 C53.1386719,128.433594 52.4765625,128.292969 52.0039062,128.011719 C51.53125,127.730469 51.2949219,127.34375 51.2949219,126.851562 C51.2949219,126.34375 51.515625,125.935547 51.9570312,125.626953 C52.3984375,125.318359 52.9472656,125.164062 53.6035156,125.164062 L53.6035156,125.164062 L55.4550781,125.164062 C56.3535156,125.164062 57.0175781,125.257812 57.4472656,125.445312 C57.8769531,125.632812 58.0917969,125.972656 58.0917969,126.464844 C58.0917969,127.074219 57.7285156,127.554688 57.0019531,127.90625 C56.2753906,128.257812 55.2714844,128.433594 53.9902344,128.433594 Z M68.1464844,125.234375 C69.0449219,125.234375 69.8457031,125.068359 70.5488281,124.736328 C71.2519531,124.404297 71.7949219,123.933594 72.1777344,123.324219 L72.1777344,123.324219 L72.3652344,123.324219 L72.8457031,125 L75.5878906,125 L75.5878906,111.898438 L72.0136719,111.898438 L72.0136719,118.0625 C72.0136719,119.609375 71.7910156,120.716797 71.3457031,121.384766 C70.9003906,122.052734 70.1777344,122.386719 69.1777344,122.386719 C68.4433594,122.386719 67.9082031,122.150391 67.5722656,121.677734 C67.2363281,121.205078 67.0683594,120.496094 67.0683594,119.550781 L67.0683594,119.550781 L67.0683594,111.898438 L63.4941406,111.898438 L63.4941406,120.441406 C63.4941406,121.988281 63.8847656,123.173828 64.6660156,123.998047 C65.4472656,124.822266 66.6074219,125.234375 68.1464844,125.234375 Z M82.5253906,125.234375 C83.5488281,125.234375 84.3789062,125.087891 85.015625,124.794922 C85.6523438,124.501953 86.2714844,123.976562 86.8730469,123.21875 L86.8730469,123.21875 L86.9667969,123.21875 L87.6582031,125 L90.1542969,125 L90.1542969,116.269531 C90.1542969,114.707031 89.6855469,113.542969 88.7480469,112.777344 C87.8105469,112.011719 86.4628906,111.628906 84.7050781,111.628906 C82.8691406,111.628906 81.1972656,112.023438 79.6894531,112.8125 L79.6894531,112.8125 L80.8730469,115.226562 C82.2871094,114.59375 83.5175781,114.277344 84.5644531,114.277344 C85.9238281,114.277344 86.6035156,114.941406 86.6035156,116.269531 L86.6035156,116.269531 L86.6035156,116.84375 L84.3300781,116.914062 C82.3691406,116.984375 80.9023438,117.349609 79.9296875,118.009766 C78.9570312,118.669922 78.4707031,119.695312 78.4707031,121.085938 C78.4707031,122.414062 78.8320312,123.4375 79.5546875,124.15625 C80.2773438,124.875 81.2675781,125.234375 82.5253906,125.234375 Z M83.8730469,122.621094 C82.7167969,122.621094 82.1386719,122.117188 82.1386719,121.109375 C82.1386719,120.40625 82.3925781,119.882812 82.9003906,119.539062 C83.4082031,119.195312 84.1816406,119.007812 85.2207031,118.976562 L85.2207031,118.976562 L86.6035156,118.929688 L86.6035156,120.007812 C86.6035156,120.796875 86.3554688,121.429688 85.859375,121.90625 C85.3632812,122.382812 84.7011719,122.621094 83.8730469,122.621094 Z M97.6660156,130.765625 C100.056641,130.765625 101.890625,130.34375 103.167969,129.5 C104.445312,128.65625 105.083984,127.46875 105.083984,125.9375 C105.083984,124.742188 104.707031,123.835938 103.953125,123.21875 C103.199219,122.601562 102.103516,122.292969 100.666016,122.292969 L100.666016,122.292969 L98.4394531,122.292969 C97.1269531,122.292969 96.4707031,122.035156 96.4707031,121.519531 C96.4707031,121.175781 96.6542969,120.863281 97.0214844,120.582031 L97.0214844,120.582031 L97.5488281,120.640625 L98.1933594,120.675781 C99.9355469,120.675781 101.296875,120.283203 102.277344,119.498047 C103.257812,118.712891 103.748047,117.617188 103.748047,116.210938 C103.748047,115.484375 103.560547,114.828125 103.185547,114.242188 L103.185547,114.242188 L105.236328,113.714844 L105.236328,111.898438 L100.666016,111.898438 C100.525391,111.867188 100.203125,111.818359 99.6992188,111.751953 C99.1953125,111.685547 98.7597656,111.652344 98.3925781,111.652344 C96.6660156,111.652344 95.3378906,112.042969 94.4082031,112.824219 C93.4785156,113.605469 93.0136719,114.710938 93.0136719,116.140625 C93.0136719,117.03125 93.2148438,117.804688 93.6171875,118.460938 C94.0195312,119.117188 94.5644531,119.59375 95.2519531,119.890625 C94.7050781,120.210938 94.2871094,120.537109 93.9980469,120.869141 C93.7089844,121.201172 93.5644531,121.617188 93.5644531,122.117188 C93.5644531,122.515625 93.7011719,122.892578 93.9746094,123.248047 C94.2480469,123.603516 94.5683594,123.859375 94.9355469,124.015625 C93.9824219,124.242188 93.2597656,124.621094 92.7675781,125.152344 C92.2753906,125.683594 92.0292969,126.34375 92.0292969,127.132812 C92.0292969,128.28125 92.5117188,129.173828 93.4765625,129.810547 C94.4414062,130.447266 95.8378906,130.765625 97.6660156,130.765625 Z M98.3925781,118.496094 C97.7285156,118.496094 97.234375,118.289062 96.9101562,117.875 C96.5859375,117.460938 96.4238281,116.898438 96.4238281,116.1875 C96.4238281,114.609375 97.0800781,113.820312 98.3925781,113.820312 C99.6894531,113.820312 100.337891,114.609375 100.337891,116.1875 C100.337891,116.898438 100.181641,117.460938 99.8691406,117.875 C99.5566406,118.289062 99.0644531,118.496094 98.3925781,118.496094 Z M97.8183594,128.433594 C96.9667969,128.433594 96.3046875,128.292969 95.8320312,128.011719 C95.359375,127.730469 95.1230469,127.34375 95.1230469,126.851562 C95.1230469,126.34375 95.34375,125.935547 95.7851562,125.626953 C96.2265625,125.318359 96.7753906,125.164062 97.4316406,125.164062 L97.4316406,125.164062 L99.2832031,125.164062 C100.181641,125.164062 100.845703,125.257812 101.275391,125.445312 C101.705078,125.632812 101.919922,125.972656 101.919922,126.464844 C101.919922,127.074219 101.556641,127.554688 100.830078,127.90625 C100.103516,128.257812 99.0996094,128.433594 97.8183594,128.433594 Z M113.322266,125.234375 C114.345703,125.234375 115.212891,125.158203 115.923828,125.005859 C116.634766,124.853516 117.302734,124.621094 117.927734,124.308594 L117.927734,124.308594 L117.927734,121.542969 C117.162109,121.902344 116.427734,122.164062 115.724609,122.328125 C115.021484,122.492188 114.275391,122.574219 113.486328,122.574219 C112.470703,122.574219 111.681641,122.289062 111.119141,121.71875 C110.556641,121.148438 110.255859,120.355469 110.216797,119.339844 L110.216797,119.339844 L118.666016,119.339844 L118.666016,117.605469 C118.666016,115.746094 118.150391,114.289062 117.119141,113.234375 C116.087891,112.179688 114.646484,111.652344 112.794922,111.652344 C110.857422,111.652344 109.339844,112.251953 108.242188,113.451172 C107.144531,114.650391 106.595703,116.347656 106.595703,118.542969 C106.595703,120.675781 107.189453,122.324219 108.376953,123.488281 C109.564453,124.652344 111.212891,125.234375 113.322266,125.234375 Z M115.314453,116.960938 L110.298828,116.960938 C110.361328,116.078125 110.607422,115.396484 111.037109,114.916016 C111.466797,114.435547 112.060547,114.195312 112.818359,114.195312 C113.576172,114.195312 114.177734,114.435547 114.623047,114.916016 C115.068359,115.396484 115.298828,116.078125 115.314453,116.960938 L115.314453,116.960938 Z" id="EcologicalMetadataLanguage" fill-rule="nonzero"></path>
    </g>
</svg>
