<?xml version="1.0" encoding="UTF-8"?>
<svg width="463px" height="74px" viewBox="0 0 463 74" version="1.1" xmlns="http://www.w3.org/2000/svg" xmlns:xlink="http://www.w3.org/1999/xlink">
    <title>metacat</title>
    <g id="metacat" stroke="none" stroke-width="1" fill-rule="evenodd">
        <path d="M99.312,73 C100.032,73 100.632,72.748 101.112,72.244 C101.592,71.74 101.832,71.128 101.832,70.408 L101.832,70.408 L101.76,43.912 L113.64,58.816 C114.024,59.344 114.54,59.764 115.188,60.076 C115.836,60.388 116.52,60.544 117.24,60.544 C118.728,60.544 119.952,59.896 120.912,58.6 L120.912,58.6 L132.504,43.912 L132.504,70.408 C132.504,71.128 132.78,71.74 133.332,72.244 C133.884,72.748 134.52,73 135.24,73 L135.24,73 L144.888,73 C145.608,73 146.208,72.748 146.688,72.244 C147.168,71.74 147.408,71.128 147.408,70.408 L147.408,70.408 L147.408,25.12 C147.408,24.448 147.156,23.86 146.652,23.356 C146.148,22.852 145.56,22.6 144.888,22.6 L144.888,22.6 L135.168,22.6 C134.208,22.6 133.38,22.648 132.684,22.744 C131.988,22.84 131.352,23.152 130.776,23.68 L130.776,23.68 L116.736,38.296 L103.344,23.608 C103.152,23.368 102.792,23.14 102.264,22.924 C101.736,22.708 101.232,22.6 100.752,22.6 L100.752,22.6 L89.592,22.6 C88.872,22.6 88.26,22.852 87.756,23.356 C87.252,23.86 87,24.448 87,25.12 L87,25.12 L87,70.408 C87,71.08 87.252,71.68 87.756,72.208 C88.26,72.736 88.872,73 89.592,73 L89.592,73 L99.312,73 Z M193.56,73 C194.376,73 195.084,72.676 195.684,72.028 C196.284,71.38 196.584,70.624 196.584,69.76 L196.584,69.76 L196.584,63.568 C196.584,62.608 196.284,61.828 195.684,61.228 C195.084,60.628 194.376,60.328 193.56,60.328 L193.56,60.328 L172.248,60.328 L172.248,53.92 L192.552,53.92 C193.32,53.92 194.004,53.596 194.604,52.948 C195.204,52.3 195.504,51.568 195.504,50.752 L195.504,50.752 L195.504,44.488 C195.504,43.576 195.204,42.82 194.604,42.22 C194.004,41.62 193.32,41.32 192.552,41.32 L192.552,41.32 L172.248,41.32 L172.248,35.488 L193.56,35.488 C194.328,35.488 195.024,35.164 195.648,34.516 C196.272,33.868 196.584,33.136 196.584,32.32 L196.584,32.32 L196.584,26.056 C196.584,25.144 196.284,24.388 195.684,23.788 C195.084,23.188 194.376,22.888 193.56,22.888 L193.56,22.888 L159.576,22.888 C158.76,22.888 158.052,23.188 157.452,23.788 C156.852,24.388 156.552,25.144 156.552,26.056 L156.552,26.056 L156.552,69.76 C156.552,70.624 156.852,71.38 157.452,72.028 C158.052,72.676 158.76,73 159.576,73 L159.576,73 L193.56,73 Z M230.424,73 C231.24,73 231.924,72.688 232.476,72.064 C233.028,71.44 233.304,70.672 233.304,69.76 L233.304,69.76 L233.304,37.216 L244.68,37.216 C245.496,37.216 246.216,36.904 246.84,36.28 C247.464,35.656 247.776,34.936 247.776,34.12 L247.776,34.12 L247.776,25.768 C247.776,25 247.464,24.316 246.84,23.716 C246.216,23.116 245.496,22.816 244.68,22.816 L244.68,22.816 L206.952,22.816 C206.04,22.816 205.284,23.104 204.684,23.68 C204.084,24.256 203.784,24.952 203.784,25.768 L203.784,25.768 L203.784,34.12 C203.784,34.936 204.084,35.656 204.684,36.28 C205.284,36.904 206.04,37.216 206.952,37.216 L206.952,37.216 L218.472,37.216 L217.968,69.832 C217.968,70.744 218.244,71.5 218.796,72.1 C219.348,72.7 220.032,73 220.848,73 L220.848,73 L230.424,73 Z M258.648,73 C259.656,73 260.496,72.82 261.168,72.46 C261.84,72.1 262.272,71.584 262.464,70.912 L262.464,70.912 L264.696,63.712 L280.752,63.712 L282.984,70.912 C283.176,71.584 283.62,72.1 284.316,72.46 C285.012,72.82 285.864,73 286.872,73 L286.872,73 L296.736,73 C298.656,72.712 299.616,71.704 299.616,69.976 C299.616,69.304 299.496,68.596 299.256,67.852 C299.016,67.108 298.872,66.616 298.824,66.376 L298.824,66.376 L282.696,25.84 C282.408,24.976 281.856,24.232 281.04,23.608 C280.224,22.984 279.192,22.648 277.944,22.6 L277.944,22.6 L267.576,22.6 C266.424,22.648 265.428,22.948 264.588,23.5 C263.748,24.052 263.112,24.832 262.68,25.84 L262.68,25.84 L246.696,66.376 C246.648,66.472 246.492,66.916 246.228,67.708 C245.964,68.5 245.832,69.304 245.832,70.12 C245.832,71.752 246.768,72.712 248.64,73 L248.64,73 L258.648,73 Z M278.16,51.544 L266.856,51.544 L272.472,34.624 L278.16,51.544 Z M328.2,74.08 C333.432,74.08 338.472,72.544 343.32,69.472 C344.04,68.944 344.4,68.296 344.4,67.528 C344.4,66.808 344.112,66.16 343.536,65.584 L343.536,65.584 L335.616,57.808 C335.184,57.376 334.656,57.16 334.032,57.16 C333.6,57.16 333.192,57.256 332.808,57.448 C331.176,58.12 329.616,58.456 328.128,58.456 C326.064,58.456 324.168,57.952 322.44,56.944 C320.712,55.936 319.332,54.58 318.3,52.876 C317.268,51.172 316.752,49.336 316.752,47.368 C316.752,45.352 317.256,43.504 318.264,41.824 C319.272,40.144 320.652,38.812 322.404,37.828 C324.156,36.844 326.064,36.352 328.128,36.352 C329.712,36.352 331.152,36.64 332.448,37.216 C332.832,37.408 333.264,37.504 333.744,37.504 C334.368,37.504 334.92,37.264 335.4,36.784 L335.4,36.784 L342.456,29.008 C342.984,28.384 343.248,27.76 343.248,27.136 C343.248,26.224 342.816,25.528 341.952,25.048 C337.68,22.552 333.096,21.304 328.2,21.304 C323.352,21.304 318.852,22.492 314.7,24.868 C310.548,27.244 307.26,30.448 304.836,34.48 C302.412,38.512 301.2,42.904 301.2,47.656 C301.2,52.408 302.412,56.812 304.836,60.868 C307.26,64.924 310.548,68.14 314.7,70.516 C318.852,72.892 323.352,74.08 328.2,74.08 Z M362.616,73 C363.624,73 364.464,72.82 365.136,72.46 C365.808,72.1 366.24,71.584 366.432,70.912 L366.432,70.912 L368.664,63.712 L384.72,63.712 L386.952,70.912 C387.144,71.584 387.588,72.1 388.284,72.46 C388.98,72.82 389.832,73 390.84,73 L390.84,73 L400.704,73 C402.624,72.712 403.584,71.704 403.584,69.976 C403.584,69.304 403.464,68.596 403.224,67.852 C402.984,67.108 402.84,66.616 402.792,66.376 L402.792,66.376 L386.664,25.84 C386.376,24.976 385.824,24.232 385.008,23.608 C384.192,22.984 383.16,22.648 381.912,22.6 L381.912,22.6 L371.544,22.6 C370.392,22.648 369.396,22.948 368.556,23.5 C367.716,24.052 367.08,24.832 366.648,25.84 L366.648,25.84 L350.664,66.376 C350.616,66.472 350.46,66.916 350.196,67.708 C349.932,68.5 349.8,69.304 349.8,70.12 C349.8,71.752 350.736,72.712 352.608,73 L352.608,73 L362.616,73 Z M382.128,51.544 L370.824,51.544 L376.44,34.624 L382.128,51.544 Z M435.408,73 C436.224,73 436.908,72.688 437.46,72.064 C438.012,71.44 438.288,70.672 438.288,69.76 L438.288,69.76 L438.288,37.216 L449.664,37.216 C450.48,37.216 451.2,36.904 451.824,36.28 C452.448,35.656 452.76,34.936 452.76,34.12 L452.76,34.12 L452.76,25.768 C452.76,25 452.448,24.316 451.824,23.716 C451.2,23.116 450.48,22.816 449.664,22.816 L449.664,22.816 L411.936,22.816 C411.024,22.816 410.268,23.104 409.668,23.68 C409.068,24.256 408.768,24.952 408.768,25.768 L408.768,25.768 L408.768,34.12 C408.768,34.936 409.068,35.656 409.668,36.28 C410.268,36.904 411.024,37.216 411.936,37.216 L411.936,37.216 L423.456,37.216 L422.952,69.832 C422.952,70.744 423.228,71.5 423.78,72.1 C424.332,72.7 425.016,73 425.832,73 L425.832,73 L435.408,73 Z" id="metacatui" fill="#FCBF49" fill-rule="nonzero"></path>
        <g id="cat" transform="translate(0.000000, 0.000000)" fill-rule="nonzero">
            <path d="M44.7992917,24.6666667 C41.6882083,24.6666667 28.3312083,24.9719167 19.7333333,37.9172917 L19.7333333,24.6666667 C19.7333333,16.5050833 13.0949167,9.86666667 4.93333333,9.86666667 C2.20920833,9.86666667 -4.3816802e-15,12.075875 -4.3816802e-15,14.8 C-4.3816802e-15,17.524125 2.20920833,19.7333333 4.93333333,19.7333333 C7.65283333,19.7333333 9.86666667,21.9471667 9.86666667,24.6666667 L9.86666667,64.1333333 C9.86666667,69.5754167 14.29125,74 19.7333333,74 L46.8666667,74 C48.2295,74 49.3333333,72.8961667 49.3333333,71.5333333 L49.3333333,69.0666667 C49.3333333,66.3425417 47.124125,64.1333333 44.4,64.1333333 L39.4666667,64.1333333 L59.2,49.3333333 L59.2,71.5333333 C59.2,72.8961667 60.3038333,74 61.6666667,74 L66.6,74 C67.9628333,74 69.0666667,72.8961667 69.0666667,71.5333333 L69.0666667,39.7534167 C67.4802917,40.1650417 65.846125,40.4533333 64.1333333,40.4533333 C54.6042917,40.4533333 46.6323333,33.6622917 44.7992917,24.6666667 Z M69.0666667,9.86666667 L59.2,9.86666667 L49.3333333,0 L49.3333333,20.72 C49.3333333,28.8939167 55.9594167,35.52 64.1333333,35.52 C72.30725,35.52 78.9333333,28.8939167 78.9333333,20.72 L78.9333333,0 L69.0666667,9.86666667 Z M57.9666667,22.2 C56.6038333,22.2 55.5,21.0961667 55.5,19.7333333 C55.5,18.3705 56.6038333,17.2666667 57.9666667,17.2666667 C59.3295,17.2666667 60.4333333,18.3705 60.4333333,19.7333333 C60.4333333,21.0961667 59.3295,22.2 57.9666667,22.2 Z M70.3,22.2 C68.9371667,22.2 67.8333333,21.0961667 67.8333333,19.7333333 C67.8333333,18.3705 68.9371667,17.2666667 70.3,17.2666667 C71.6628333,17.2666667 72.7666667,18.3705 72.7666667,19.7333333 C72.7666667,21.0961667 71.6628333,22.2 70.3,22.2 Z" id="Shape"></path>
        </g>
    </g>
</svg>
