<svg width="107" height="96" xmlns="http://www.w3.org/2000/svg"><path d="M107 94.351V96H0v-1.649h107zm-2.368-26.311c2.173 1.751-.13 4.521-2.047 3.12-2.365-1.496-7.736-2.197-8.407 1.115-.863 5.222 13.043 2.23 12.82 10.7-.225 8.088-11.989 8.279-16.401 4.649-1.055-.86-1.023-2.262-.448-3.121.831-.828 1.758-1.114 2.845-.223 2.621 1.784 9.368 3.12 9.847-1.401-.416-4.713-13.714-1.879-12.724-10.923.736-6.176 10.103-7.292 14.515-3.916zm-69.72-1.433c2.781 0 4.987.827 7.32 2.834.864.796.96 2.197.097 3.089-.863.764-2.174.669-2.942-.096-1.31-1.369-2.653-1.751-4.475-1.751-4.923 0-7.29 3.471-7.29 7.356 0 3.949 2.335 7.579 7.29 7.579 1.822 0 3.516-.733 4.987-2.038.991-.765 2.366-.383 2.94.382.513.7.768 1.879-.35 2.993-2.238 2.07-4.924 2.484-7.577 2.484-7.737 0-11.221-5.255-11.221-11.4 0-6.146 3.868-11.432 11.22-11.432zm43.41 1.687l9.016 17.865c1.31 2.483-2.558 4.458-3.708 1.974l-1.407-2.802H70.426l-1.374 2.802c-.512 1.083-1.695 1.306-2.845 1.083-1.024-.574-1.663-1.72-1.024-3.057l9.175-17.865c.864-1.687 3.165-1.75 3.965 0zm-59.265-1.4c1.151 0 2.27 1.146 2.27 2.197v17.928c0 1.401-.864 1.942-1.695 2.197-1.118 0-1.662-.255-2.59-1.114L6.463 74.727v12.292c0 1.401-.864 2.197-2.015 2.197-1.15 0-2.173-.796-2.173-2.197v-17.61c0-1.146.255-2.26 1.918-2.26 1.15 0 1.406.285 2.27 1.114l10.58 13.183V69.091c0-1.051.928-2.197 2.015-2.197zm41.365.286c2.94 0 2.877 4.14 0 4.14h-9.208v4.776h8.057c2.845 0 2.845 4.172 0 4.172h-8.057v4.776h9.75c2.91 0 3.134 4.172 0 4.172h-12.02c-1.118 0-1.981-.86-1.981-1.974V69.154c0-1.146.863-1.974 1.981-1.974h11.478zm15.918 6.082l-3.932 7.866h7.545l-3.613-7.866zM35.802.298c10.265-2.536 23.123 11.385 21.687 30.859l.374-1.055a71.591 71.591 0 002.305-7.693c.626-2.594 1.043-5.235 1.123-7.877.05-2.625-.261-5.315-1.489-7.633-1.184-2.314-3.473-4.11-6.172-4.564 1.365.04 2.722.485 3.913 1.209 1.196.723 2.201 1.763 2.958 2.951 1.504 2.412 2.018 5.279 2.077 8.037.081 5.576-1.387 10.96-3.153 16.115l-.15.408c13.665-12.969 33.586-13.957 38.398-4.929 5.05 9.476-9.756 16.64-9.756 16.64-2.336 1.263-4.924 2.35-7.438 3.259 1.099 4.961-1.512 10.914-6.472 14.25H107v1.648H70.787c-.94.348-1.934.609-2.977.768-2.62.4-4.984.078-7.01-.767H0v-1.65l58.006.001c-4.38-3.475-6.119-9.875-3.685-15.559 2.99-6.983 11.752-5.9 11.752-5.9-1.608-1.098-2.378-2.629-2.262-3.882.08-.878.158-1.398.716-2.234 1.452-2.174 5.04-4.331 7.35-5.446 4.47-2.157 10.919-3.926 16.45-1.504 5.53 2.424 5.228 6.466.905 10.513-4.323 4.045-12.007 4.49-12.007 4.49.915 1.025 2.641 3.198 3.032 4.442l.122-.041C92.37 40.589 99.312 32.587 94.614 26.24c-3.837-4.615-11.03-5.232-20.843-2.37-6.782 1.978-12.061 5.617-14.676 7.677l.33-.9a106.177 106.177 0 01-3.062 7.594c-1.134 2.478-2.315 4.933-3.599 7.333a150.073 150.073 0 01-8.384 13.979c2.451-4.847 4.918-9.668 7.228-14.553 1.138-2.45 2.28-4.896 3.319-7.383a122.98 122.98 0 002.48-6.233c-.034-2.049-.485-7.636-3.96-14.87-4.413-9.187-9.676-14.109-15.689-13.87-7.879.754-9.224 11.243-4.628 23.184l.05.116c1.19-.54 3.967-.712 5.345-.717 0 0-4.8-5.993-4.663-11.9.138-5.908 2.958-8.83 8.46-6.35 5.504 2.483 8.489 8.448 9.862 13.201.709 2.458 1.492 6.56.837 9.087-.252.972-.589 1.378-1.19 2.023-.86.923-2.519 1.374-4.413.914 0 0 6.66 5.776 3.44 12.654-4.124 8.8-16.445 11.137-22.441 2.002-4.873-7.425-2.043-17.128 3.995-20.524-1-2.47-1.917-5.115-2.531-7.691 0 0-4.533-15.762 5.921-18.345zm30.319 39.736c-2.353-.428-5.163-.039-7.33 1.502-1.14.81-1.49 1.338-2.114 2.341-4.34 7.598 2.652 15.83 8.66 16.27 7.97.584 13.105-4.898 14.032-9.764a7.895 7.895 0 00-.221-3.89c-.86.294-1.704.566-2.52.815.928 4.841-3.224 8.625-6.847 9.735-1.707.522-3.522.676-5.33.225-2.102-.522-4.157-1.894-5.45-4.974-2.406-5.733 4.347-14.016 11.956-9.845 0 0 .274.124.437.123.161-.002.606-.06-.32-.628a13.672 13.672 0 00-4.953-1.91zm6.18 6.056c-2.752-3.96-8.301-2.195-10.156 1.026-.913 1.584-1.16 3.493-.603 5.008.574 1.561 1.984 2.713 3.237 3.245 1.74.736 3.482.3 4.338.017.308-.102.407-.18.407-.18-.044-.046-.418-.021-.94-.034-.577-.013-1.544-.156-3.21-1.062-3.052-1.665-1.327-3.567-1.192-3.708 1.709-1.522 5.712-2.15 6.36-2.244.74-.218 1.548-.458 2.378-.705-.25-.8-.62-1.363-.62-1.363zm.816 2.228c-2.985.797-5.027 1.194-5.027 1.194s-.357.087-.84.197c-2.625.712-4.063 1.787-1.595 3.48 2.844 1.95 5.554-.1 5.554-.1 1.846-1.39 2.128-3.29 1.908-4.771zM32.95 27.635a7.936 7.936 0 00-3.055 2.433c-3.018 3.937-3.687 11.406 2.072 16.924 4.341 4.16 15.161 3.848 17.943-4.443.332-1.133.492-1.744.337-3.128-.296-2.638-1.881-4.982-3.772-6.44a13.661 13.661 0 00-4.735-2.398c-1.041-.307-.788.061-.682.183.107.12.383.242.383.242 8.198 2.856 6.517 13.394.626 15.439-3.166 1.099-5.562.49-7.356-.72-1.544-1.04-2.641-2.49-3.391-4.102-1.59-3.429-1.534-9.034 2.702-11.578a87.333 87.333 0 01-1.072-2.412zm36.795 13.052l.121.04c1.413.466 5.325 2.06 6.53 5.683.898-.273 1.735-.53 2.438-.753-1.352-3.115-4.198-4.698-4.198-4.698s-2.243.448-4.891-.272zm-25.906-.03c1.166-3.526-1.22-8.818-6.017-8.213 0 0-.667.102-1.431.448.37.783.731 1.541 1.062 2.235.363.543 2.566 3.931 2.57 6.215-.016.194-.287 2.743-3.568 1.59-1.79-.628-2.542-1.25-2.939-1.67-.357-.377-.588-.671-.651-.675 0 0 .007.127.137.423.36.825 1.197 2.406 2.91 3.205 1.232.574 3.035.85 4.586.233 1.504-.599 2.766-2.056 3.34-3.79zm-8.226-7.333c-1.254.826-2.485 2.305-2.29 4.601 0 0 .276 3.378 3.632 4.185 2.913.7 2.756-1.085 1.536-3.505-.242-.433-.415-.755-.415-.755s-1.066-1.78-2.463-4.526zm33.738 7.248c.132.042.264.079.394.115-.249-.078-.394-.115-.394-.115zm14.82-12.228c-2.576-.954-6.15-.92-10.644 1.313-.42.21-1.049.459-1.463.785-.412.222-.682.42-1.046.654-2.43 1.562-4.59 3.885-4.013 5.654l.017.067c.213.848.545 1.09 1.018 1.46 2.367 1.846 5.783 1.618 5.783 1.618l-.901-.892-.37-.091s-2.695-.356-2.916-2.487c-.222-2.133 3.434-4.622 5.836-5.615 2.022-.835 7.213-1.63 8.36 1.23 1.147 2.86-4.79 5.71-8.699 6.812l.866.737s4.692-.842 7.815-3.3c.784-.618 1.516-1.36 1.965-2.107.671-1.115.82-2.313.667-3.23-.199-1.19-1.342-2.263-2.274-2.608zm-4.099 7.581c2.526-2.125 1.584-5.692-2.793-4.504-4.371 1.186-6.222 3.115-5.674 4.884.047.15.077.487.276.755.254.345.704.63.969.803.197.13.36.186.49.207.101.031.635.169 1.396.083l.007.007s2.804-.111 5.33-2.235zm-36.501-5.193l.167.105.17.102c-.03-.02-.15-.097-.341-.21l.004.003zm-3.474-3.448s-3.083-1.053-6.314.025c.303.67.67 1.462 1.064 2.31 3.62-1.573 7.549.425 8.72 1.11-2.306-1.483-3.47-3.445-3.47-3.445zm3.06-15.495c-.881-.461-2.445-.592-3.467.056-.787.498-1.584 1.408-1.969 2.65-.257.832-.325 1.87-.262 2.865.248 3.957 2.752 7.998 2.752 7.998l1.128.15c-1.786-3.634-3.62-9.94-.718-10.999 2.904-1.06 5.777 3.322 6.503 5.378.862 2.445 1.442 6.817-.299 8.076-1.74 1.26-3.806-.5-3.806-.5l-.316-.215-1.267-.073s2.11 2.686 5.071 3.209c.59.104.993.189 1.77-.22.02-.01.041-.02.061-.032 1.708-.754 2.002-3.906 1.546-6.751-.069-.426-.1-.76-.21-1.213-.032-.523-.266-1.157-.39-1.609-1.332-4.824-3.693-7.497-6.128-8.77zm2.303 7.166c-2.034-4.04-5.329-2.355-5.231.936.1 3.29 1.888 5.444 1.888 5.444h.011c.443.622.904.927.994.983.102.078.254.164.481.223.307.08.82.224 1.247.182.334-.032.606-.235.749-.3 1.689-.774 1.893-3.435-.139-7.468zm38.58-5.665a10.77 10.77 0 00-6.939-1.013c-2.292.442-4.386 1.607-6.2 3.107a23.468 23.468 0 00-2.583 2.448c-.824.867-1.571 1.808-2.318 2.756-1.472 1.913-2.813 3.945-4.17 5.996a33.292 33.292 0 013.289-6.613c1.34-2.085 2.953-4.032 4.907-5.65.99-.79 2.057-1.503 3.222-2.049 1.164-.532 2.413-.928 3.698-1.052 2.559-.282 5.221.447 7.095 2.07z" /></svg>
