<svg xmlns="http://www.w3.org/2000/svg" viewBox="0 0 165 180" width="165" height="180">
  <defs>
    <linearGradient id="a" x1=".5" x2=".5" y1="1">
      <stop offset="0" stop-color="gray" stop-opacity=".25"/>
      <stop offset=".54" stop-color="gray" stop-opacity=".12"/>
      <stop offset="1" stop-color="gray" stop-opacity=".1"/>
    </linearGradient>
  </defs>
  <g transform="translate(-737 -135.82)">
    <path class="theme-primary-fill" d="M738.53 135.82h158.98v91.5H738.53z" opacity=".5"/>
    <path fill="#fafafa" d="M757.44 144.5h158.98V236H757.44z"/>
    <path fill="#e0e0e0" d="M846.4 235.99h-88.95v-16.74c21.73-10.15 55.16-15.86 88.94 16.74z"/>
    <path d="M915.44 233.62v2.37H804.51v-.5s54.59-53.13 110.93-1.87z" opacity=".1"/>
    <path fill="#e0e0e0" d="M916.48 233.62v2.37H805.55v-.5s54.58-53.13 110.93-1.87z"/>
    <circle cx="8.18" cy="8.18" r="8.18" fill="#e0e0e0" transform="translate(767.68 152.69)"/>
    <path fill="#f4f4f4" d="M845.48 154.67c-.93 0-1.98 0-2.68.06a3.27 3.27 0 0 0-.94.19l-4.81 1.73c3.89.1 7.94.06 11.91 0l22.33-.17c2.28 0 4.68-.04 6.58-.18 1.27-.09 2.2-.23 3.37-.33 4.23-.37 10.4-.3 15.9-.29s12.15-.12 14.1-.67h-11.82c-1.27 0-2.61 0-3.74-.07-1.32-.07-2.12-.22-3.28-.32a96.16 96.16 0 0 0-7-.2c-13.46 0-26.76.33-39.92.25zM858.74 164.6h-.59a.74.74 0 0 0-.2.04l-1.04.38h2.58l4.84-.04c.49 0 1 0 1.42-.04l.73-.07c.92-.08 2.25-.07 3.45-.06a18.76 18.76 0 0 0 3.05-.15h-3.37c-.24 0-.46-.05-.74-.06-.4 0-.98-.04-1.51-.05-2.9-.01-5.78.05-8.63.05zM824.48 178.9h-.58a.73.73 0 0 0-.2.05l-1.04.37h2.58l4.84-.03c.49 0 1 0 1.42-.04l.73-.08c.92-.08 2.25-.06 3.45-.05a18.77 18.77 0 0 0 3.05-.15h-3.37c-.24 0-.46-.05-.74-.07-.4 0-.98-.03-1.51-.04-2.89 0-5.78.06-8.63.04z"/>
    <path class="theme-secondary-fill" d="M805.25 231.47h-3.81s-1.2-42.04 3.84-55.01h.96s-3.4 47.57-1 55.01z"/>
    <path class="theme-secondary-fill" d="M802.6 174.3s-3.12 8.65-1.67 12.52c0 0 2.16-7.93 4.68-9.13s5.16 9.13 5.16 9.13 1.47-6.49-1.2-11.78a20.89 20.89 0 0 1 7.92 8.4s.48-3.6-5.76-11.04c0 0 5.53 1.47 9.13 4.8 0 0 1.2-2.64-6.25-6.96 0 0 .96-3.12 6.72-1.68 0 0 0-4.09-9.12-3.36 0 0 0-2.65 6-2.17 0 0 0-3.36-6.97-2.16a11.22 11.22 0 0 1 2.4-2.64 4.83 4.83 0 0 0-3.36.96s.24-4.33-3.36-6l-.48 6s-4.04-4.76-3.12-3.84a10.54 10.54 0 0 1 .74 4.56s-4.09-3.36-9.13.24c0 0 6.25.48 7.2 2.65 0 0-5.28-.97-6.48-.25 0 0 4.09 1.47 3.84 2.4 0 0-7.2 0-8.17 2.64 0 0 7.45.97 7.93 1.68 0 0-8.65 6.25-9.13 7.93 0 0 8.9-5.29 10.3-5.29s-6.48 7.7-6 9.62c.02 0 6.5-7.71 8.18-7.23zM852.67 229.9h2.94s.92-32.11-2.94-42.03h-.74s2.57 36.34.74 42.04z"/>
    <path class="theme-secondary-fill" d="M854.69 186.22s2.38 6.62 1.28 9.56c0 0-1.65-6.05-3.57-6.97s-3.95 6.97-3.95 6.97-1.1-4.95.92-8.99a15.96 15.96 0 0 0-6.06 6.43s-.36-2.76 4.42-8.45a18.6 18.6 0 0 0-6.98 3.68s-.92-2.01 4.77-5.32c0 0-.73-2.38-5.15-1.29 0 0 0-3.12 6.98-2.56 0 0 0-2.02-4.59-1.65 0 0 0-2.57 5.32-1.65a8.1 8.1 0 0 0-1.83-2.02 3.68 3.68 0 0 1 2.57.74s-.19-3.3 2.57-4.59l.36 4.59s3.09-3.64 2.39-2.95a8.05 8.05 0 0 0-.55 3.5 5.73 5.73 0 0 1 6.97.18s-4.76.36-5.5 2.01c0 0 4.04-.73 4.95-.18 0 0-3.12 1.1-2.94 1.83 0 0 5.5 0 6.24 2.02 0 0-5.69.73-6.06 1.29 0 0 6.63 4.77 6.98 6.05 0 0-6.8-4.04-7.89-4.04s4.95 5.9 4.58 7.36c0-.05-4.95-5.92-6.23-5.55zM887.81 223.63h1.81s.57-19.87-1.81-26.03h-.46s1.6 22.5.46 26.03z"/>
    <path class="theme-secondary-fill" d="M889.02 196.58s1.47 4.09.8 5.88c0 0-1.03-3.75-2.22-4.32s-2.44 4.32-2.44 4.32a9.5 9.5 0 0 1 .57-5.57 9.88 9.88 0 0 0-3.75 3.98s-.23-1.7 2.73-5.22a11.53 11.53 0 0 0-4.32 2.27s-.57-1.25 2.94-3.3c0 0-.46-1.47-3.18-.8 0 0 0-1.93 4.32-1.58 0 0 0-1.25-2.84-1.02 0 0 0-1.6 3.3-1.03a5 5 0 0 0-1.13-1.25 2.29 2.29 0 0 1 1.59.46 3.08 3.08 0 0 1 1.59-2.84l.22 2.84s1.92-2.25 1.48-1.82a4.98 4.98 0 0 0-.34 2.16 3.54 3.54 0 0 1 4.32.1s-2.95.23-3.41 1.26c0 0 2.5-.46 3.07-.11 0 0-1.94.68-1.82 1.13 0 0 3.4 0 3.86 1.25 0 0-3.52.46-3.75.8 0 0 4.1 2.94 4.32 3.75 0 0-4.2-2.5-4.89-2.5s3.07 3.63 2.85 4.55c.03.01-3.04-3.62-3.87-3.4z"/>
    <path fill="url(#a)" d="M922.29 268.63l-.38-2.05a1.11 1.11 0 0 0-.35-.8l-1.77-.87a2 2 0 0 1-.32-.53v-.04a1.06 1.06 0 0 0 .2-.42.74.74 0 0 0 0-.12.66.66 0 0 0 .74-.53v-.04a.66.66 0 0 1-.6.49 1.81 1.81 0 0 0 .8-1.47v-.08a.66.66 0 0 0 .3-.44v-.04a.66.66 0 0 1-.31.4 1.8 1.8 0 0 0-.11-.48h.04a.66.66 0 0 0 .65-.66v-.04a.66.66 0 0 1-.65.6h-.08a1.07 1.07 0 0 0 .73-.87v-.04a.65.65 0 0 1-.13.35.66.66 0 0 0-1.3-.19l-.12-.07a.66.66 0 0 1 .6-.47h-.04a.66.66 0 0 0-.63.44 1.81 1.81 0 0 0-2.28.65c-.14.1-.32.25-.31.38a1.25 1.25 0 0 0-.16.19 2.51 2.51 0 0 0-.2 1.36 1.47 1.47 0 0 1-.48 1.25.63.63 0 0 0 .5 0 1.85 1.85 0 0 0 .42-.25.95.95 0 0 0 .3-.28 1.48 1.48 0 0 0 .27.14c.04.3.04.66-.09.77v-.06a1.66 1.66 0 0 1-1.15.33 1.47 1.47 0 0 0-1.2.74l-.55 2.36v.07a.18.18 0 0 0 .13.13l.17.05a3.6 3.6 0 0 1 0 1.13 10.08 10.08 0 0 0-.2 1.74c.04.3.11 1.8.14 2.53q-.09.36-.14.74l-.83 4.93s-.6 3.96-.58 5.16l-.1.69s-1.68 2.1-1.19 2.39 1.25.43 1.97-.7a1.8 1.8 0 0 1 .46-.68.68.68 0 0 0 .22-.58l-.05-.48h.14a17.06 17.06 0 0 0 .74-4.6s1.52-5.43 2.68-6.28l.11-.05.25 5.25-.25 5.8-.05.35s-1.67 2.1-1.18 2.39 1.25.43 1.97-.7a1.8 1.8 0 0 1 .45-.68.68.68 0 0 0 .23-.58l-.07-.73c.29-.97 1.03-3.8.73-5.42l.51-3.47a3.66 3.66 0 0 0 .44-2.04 18.8 18.8 0 0 0 .5-4.15l.1-1.63h.3l.04-.04v-.04zm-1.43 3.31a3.44 3.44 0 0 0-.15-.33h-.05v-.13a1.4 1.4 0 0 0 .06-.17.64.64 0 0 0 .1-.35 3.34 3.34 0 0 1 .07.99zm-.15-1.4l-.1-1.1v-.08l.14 1.39zm-4.85.15a.38.38 0 0 0-.1.3 1.25 1.25 0 0 0 .05.33l-.16.68v-1.3a2.9 2.9 0 0 0 .27-.45.73.73 0 0 1-.03.44z" transform="translate(-100.98 -67.49)"/>
    <path class="skintone-fill" d="M815.94 194.77a2.41 2.41 0 0 0-.2 1.31 1.4 1.4 0 0 1-.46 1.2.6.6 0 0 0 .46 0 1.78 1.78 0 0 0 .42-.24.91.91 0 0 0 .28-.28 1.09 1.09 0 0 0 .07-.55 5.9 5.9 0 0 1 .09-1c0-.2.22-.73 0-.87s-.56.27-.66.43z"/>
    <path fill="#464646" d="M812.57 216.49l-.16 1s-1.61 2.03-1.13 2.3 1.2.42 1.89-.65a1.74 1.74 0 0 1 .44-.67.66.66 0 0 0 .22-.55l-.15-1.56zM817.42 216.9l-.16 1s-1.61 2.03-1.13 2.3 1.2.42 1.89-.66a1.74 1.74 0 0 1 .44-.66.66.66 0 0 0 .22-.55l-.15-1.56z"/>
    <path fill="#797979" d="M814.9 204.67a3.81 3.81 0 0 0-1.03 2.45l-.8 4.76a41.95 41.95 0 0 0-.54 5.15l1.34.45a16.44 16.44 0 0 0 .73-4.41s1.62-5.74 2.74-6.14l.24 5.06-.25 5.71 1.15.23s1.16-3.63.8-5.55l.6-4.08a6.05 6.05 0 0 0-.27-4.07z"/>
    <g opacity=".1">
      <path d="M817.21 207v-.09c-1.13.4-2.74 6.14-2.74 6.14a16.1 16.1 0 0 1-.69 4.37l.15.05a16.43 16.43 0 0 0 .73-4.41s1.43-5.24 2.55-6.06zM819.62 204.21h-.15a6.06 6.06 0 0 1 .26 4.05l-.6 4.09c.35 1.82-.68 5.15-.78 5.52h.15s1.16-3.63.79-5.55l.6-4.08a6.05 6.05 0 0 0-.26-4.03z"/>
    </g>
    <path fill="#464646" d="M813.87 200.95a.17.17 0 0 0 .13.17 2.65 2.65 0 0 1 1.02.48c.57.44-.6-.88-.6-.88l-.4.09z"/>
    <path d="M813.87 200.95a.17.17 0 0 0 .13.17 2.65 2.65 0 0 1 1.02.48c.57.44-.6-.88-.6-.88l-.4.09z" opacity=".1"/>
    <path fill="#464646" d="M819.41 202.13a3.56 3.56 0 0 1 1.6-.63.15.15 0 0 0 .15-.15 1.27 1.27 0 0 0-1.75.78z"/>
    <path d="M821.15 201.33a1.27 1.27 0 0 0-1.74.78 3.01 3.01 0 0 1 1.67-.63" opacity=".1"/>
    <circle cx="1.74" cy="1.74" r="1.74" class="skintone-fill" transform="translate(816.11 193.42)"/>
    <path class="skintone2-fill" d="M816.65 196.39s.25 1.02 0 1.24-.74.6-.37.9 1.7.8 2.15.56.95-.17.83-.68-1.09-.4-1.1-2.94z"/>
    <path d="M814.18 200.66a6.38 6.38 0 0 1-.1 1.65 9.72 9.72 0 0 0-.19 1.68c.05.36.17 2.8.17 2.8s-.2 2.13.84 1.93-.16-2.43-.16-2.43l.05-2.94a2.71 2.71 0 0 0 .53-1.3c.04-.66-1.14-1.4-1.14-1.4z" opacity=".1"/>
    <path class="skintone2-fill" d="M814.15 200.66a6.38 6.38 0 0 1-.1 1.65 9.71 9.71 0 0 0-.19 1.68c.05.36.16 2.8.16 2.8s-.19 2.13.85 1.93-.16-2.43-.16-2.43l.05-2.94a2.72 2.72 0 0 0 .53-1.3c.05-.66-1.14-1.4-1.14-1.4z"/>
    <path d="M820.8 200.8l-.14 2.27a18.14 18.14 0 0 1-.48 4s.1 2.21-.93 2.21.18-2.45.18-2.45a10.04 10.04 0 0 0 .27-3.28l-.27-2.73z" opacity=".1"/>
    <path class="skintone2-fill" d="M820.82 200.8l-.14 2.27a18.14 18.14 0 0 1-.48 4s.1 2.21-.93 2.21.18-2.45.18-2.45a10.04 10.04 0 0 0 .27-3.28l-.27-2.73z"/>
    <path d="M817.44 198.6s.84.38 1.3-.74l1.72.83a1.07 1.07 0 0 1 .33.78l.37 1.97a1.26 1.26 0 0 0-1.64.74l.1 1.1a1.2 1.2 0 0 1-.05.84.18.18 0 0 0 0 .14.55.55 0 0 1-.5.74 10.39 10.39 0 0 0-1.37.1c-.37.1-1.48-.21-1.85 0s-1.15-.16-1.15-.16l.21-.9s-.14-.44 0-.6a3.83 3.83 0 0 0-.08-1.92s-.64-.6-1-.5l.53-2.27a1.38 1.38 0 0 1 1.14-.74 1.6 1.6 0 0 0 1.12-.31s-.41.75.82.9z" opacity=".1"/>
    <path d="M817.53 198.55c.23.06.85.13 1.22-.8l1.71.84a1.07 1.07 0 0 1 .33.78l.37 1.97a1.26 1.26 0 0 0-1.64.74l.1 1.1.07.23a.63.63 0 0 1-.1.56.2.2 0 0 0 0 .2.55.55 0 0 1-.49.74 10.4 10.4 0 0 0-1.37.1c-.37.1-1.47-.22-1.85 0s-1.15-.16-1.15-.16l.22-.9s-.14-.45 0-.6a3.83 3.83 0 0 0-.1-1.93s-.62-.6-1-.49l.54-2.27a1.38 1.38 0 0 1 1.15-.74 1.6 1.6 0 0 0 1.1-.31s-.4.73.68.92z" opacity=".1"/>
    <path class="theme-accent-fill" d="M817.53 198.6c.23.05.85.12 1.22-.8l1.71.83a1.07 1.07 0 0 1 .33.78l.37 1.97a1.26 1.26 0 0 0-1.64.74l.1 1.1a1.2 1.2 0 0 1-.05.84.18.18 0 0 0 0 .15.55.55 0 0 1-.5.73 10.39 10.39 0 0 0-1.37.1c-.37.1-1.47-.21-1.85 0s-1.15-.16-1.15-.16l.22-.9s-.14-.44 0-.6a3.83 3.83 0 0 0-.1-1.92s-.62-.6-1-.5l.54-2.27a1.38 1.38 0 0 1 1.15-.73 1.6 1.6 0 0 0 1.1-.32s-.4.74.68.92z"/>
    <path d="M818.18 195.54l-1.47.94a4.83 4.83 0 0 1 .09.49 1.47 1.47 0 0 0 .54.1 1.5 1.5 0 0 0 .97-.45 5.82 5.82 0 0 1-.13-1.08z" opacity=".1"/>
    <circle cx="1.44" cy="1.44" r="1.44" class="skintone2-fill" transform="translate(815.83 194.09)"/>
    <circle cx=".63" cy=".63" r=".63" class="skintone-fill" transform="translate(818.77 193.16)"/>
    <path class="skintone-fill" d="M819.52 194.46a.63.63 0 0 1-.63-.59v.05a.63.63 0 0 0 1.27 0v-.05a.63.63 0 0 1-.64.6z"/>
    <path class="skintone-fill" d="M819.16 195.1a.63.63 0 0 1-.52-.7v.05a.64.64 0 1 0 1.26.23v-.05a.63.63 0 0 1-.74.47zM818.67 196.61a.63.63 0 0 1-.51-.69v.04a.64.64 0 0 0 1.25.23v-.04a.63.63 0 0 1-.74.46zM819.52 194.13a.63.63 0 0 1-.63-.59v.05a.63.63 0 0 0 1.27 0v-.05a.63.63 0 0 1-.64.6z"/>
    <path class="skintone-fill" d="M818.64 193.79a.63.63 0 0 1 .6-.63h-.05a.63.63 0 1 0 0 1.27h.04a.63.63 0 0 1-.6-.64z"/>
    <path d="M819.28 199.77a2.28 2.28 0 0 1 0 .95s-.09.83.05.97M815 199.92a2.28 2.28 0 0 1 0 .95s-.09.83.05.97M814.96 203.36a.63.63 0 0 0 .42 0 .88.88 0 0 1 .5 0M815.17 202.13a3.68 3.68 0 0 0 1.47-.23s1.8.44 2.31.13" opacity=".1"/>
    <rect width="1.11" height=".68" class="skintone2-fill" rx=".34" transform="translate(813.87 209.7)"/>
    <path fill="#f0e4e4" d="M813.87 209.88h.6l.52.08h-.19zM817.87 207.02h.6l.52.06h-.19zM817.87 207.15h.6l.52.05h-.19zM817.87 207.28h.6l.52.06h-.19zM817.87 207.4h.6l.52.04h-.19zM813.87 210.37h.6l.52.06h-.19zM813.87 210.3h.6l.52.07h-.19zM813.87 210.23h.6l.52.06h-.19zM813.87 210.18h.6l.52.06h-.19zM813.87 209.8h.6l.52.08h-.19zM813.87 209.7h.6l.52.08h-.19z"/>
    <path d="M817.51 194.6a3.5 3.5 0 0 0 .2 1.6 1.9 1.9 0 0 1-.09 1.52.5.5 0 0 0 .45-.11 1.75 1.75 0 0 0 .33-.39 1.02 1.02 0 0 0 .2-.4 1.58 1.58 0 0 0-.1-.67 8.67 8.67 0 0 1-.22-1.19c0-.24 0-.95-.27-1.02s-.45.46-.5.67z" opacity=".1"/>
    <path class="skintone-fill" d="M817.55 194.6a3.5 3.5 0 0 0 .2 1.59 1.9 1.9 0 0 1-.08 1.53.5.5 0 0 0 .45-.11 1.74 1.74 0 0 0 .32-.39 1.02 1.02 0 0 0 .2-.4 1.58 1.58 0 0 0-.1-.67 8.67 8.67 0 0 1-.2-1.19c0-.24 0-.95-.28-1.01s-.43.44-.5.65z"/>
    <path d="M816.93 194.97c.12.13.15.32.25.47a.9.9 0 0 0 .74.28.4.4 0 0 1 .2.05c.11.07.12.23.2.34a.4.4 0 0 0 .6 0 .99.99 0 0 0 .17-.6 3.94 3.94 0 0 0 0-.73 1.17 1.17 0 0 0-.32-.78 1.35 1.35 0 0 0-.57-.24 1.68 1.68 0 0 0-.87-.07 1.57 1.57 0 0 0-.4.2l-.52.35c-.2.13-.54.4-.2.54.26.04.54 0 .72.2z" opacity=".1"/>
    <path class="skintone-fill" d="M816.97 194.96c.12.12.15.31.25.46a.9.9 0 0 0 .74.29.4.4 0 0 1 .2.04c.11.08.12.24.2.35a.4.4 0 0 0 .6 0 .99.99 0 0 0 .22-.64 3.94 3.94 0 0 0 0-.73 1.17 1.17 0 0 0-.32-.78 1.35 1.35 0 0 0-.57-.24 1.68 1.68 0 0 0-.88-.07 1.57 1.57 0 0 0-.4.2l-.51.34c-.2.14-.55.4-.2.55a1.24 1.24 0 0 1 .67.23z"/>
    <path fill="#f0e4e4" d="M817.9 207.02h.6l.52.06h-.19zM817.9 207.15h.6l.52.05h-.19zM817.9 207.28h.6l.52.06h-.19zM817.9 207.4h.6l.52.04h-.19zM817.62 214.19h.6l.52.05h-.19zM817.62 214.3h.6l.52.06h-.19zM817.62 214.43h.6l.52.05h-.19zM817.62 214.55h.6l.52.06h-.19z"/>
  </g>
  <path fill="#f7f7f7" d="M0 117.19h52.62v6.09H0zM0 159.19h167.89v6.09H0zM0 127.19h52.62v6.09H0zM0 169.19h167.89v6.09H0zM0 138.19h177.06v6.09H0zM0 180.19h177.06v6.09H0zM0 148.19h175.8v6.09H0zM0 190.19h175.8v6.09H0z"/>
</svg>
