<?xml version="1.0" standalone="no"?>
<!DOCTYPE svg PUBLIC "-//W3C//DTD SVG 20010904//EN"
 "http://www.w3.org/TR/2001/REC-SVG-20010904/DTD/svg10.dtd">
<svg version="1.0" xmlns="http://www.w3.org/2000/svg"
 width="700.000000pt" height="700.000000pt" viewBox="0 0 700.000000 700.000000"
 preserveAspectRatio="xMidYMid meet">
<metadata>
Created by potrace 1.11, written by Peter Selinger 2001-2013
</metadata>
<g transform="translate(0.000000,700.000000) scale(0.100000,-0.100000)"
fill="#000000" stroke="none">
<path d="M3219 6996 c-2 -2 -38 -6 -79 -10 -41 -3 -84 -8 -95 -10 -20 -4 -113
-17 -151 -21 -86 -11 -307 -66 -464 -117 -274 -89 -518 -206 -788 -380 -53
-34 -99 -65 -102 -68 -3 -3 -41 -32 -85 -64 -461 -341 -870 -862 -1105 -1409
-75 -175 -168 -465 -195 -608 -3 -13 -9 -46 -15 -74 -5 -27 -12 -68 -15 -90
-4 -22 -10 -65 -15 -95 -5 -30 -12 -80 -15 -110 -3 -30 -8 -77 -11 -105 -12
-100 -18 -440 -10 -565 6 -91 18 -215 21 -220 2 -3 6 -34 10 -70 24 -226 120
-580 230 -850 127 -313 353 -691 540 -905 15 -16 50 -57 78 -90 127 -148 338
-341 524 -481 273 -205 662 -403 988 -502 106 -33 280 -77 330 -85 17 -3 68
-12 115 -21 47 -8 112 -18 145 -21 33 -3 72 -8 85 -11 14 -3 151 -7 305 -9
285 -3 379 2 590 31 167 23 452 96 635 164 537 198 1027 538 1411 980 290 333
520 733 662 1150 54 157 113 390 131 515 4 23 8 50 10 61 2 12 7 45 11 74 4
29 8 60 10 69 3 14 9 83 20 211 5 52 5 418 1 470 -2 19 -6 75 -10 125 -4 49
-9 92 -11 95 -2 3 -6 32 -9 64 -4 33 -11 78 -16 100 -5 23 -12 61 -15 86 -11
78 -82 340 -129 476 -267 777 -789 1426 -1487 1850 -113 68 -379 199 -506 248
-117 45 -300 102 -428 132 -98 22 -113 26 -185 38 -19 3 -48 8 -65 12 -16 3
-64 9 -105 15 -41 5 -91 12 -110 15 -38 6 -625 15 -631 10z m601 -499 c14 -3
50 -8 80 -12 242 -28 446 -82 690 -181 624 -252 1129 -722 1450 -1349 125
-244 241 -573 284 -810 21 -109 36 -208 41 -255 4 -30 8 -68 11 -85 10 -53 13
-508 4 -580 -4 -38 -11 -99 -14 -135 -4 -36 -9 -74 -11 -85 -2 -11 -7 -36 -9
-55 -25 -178 -129 -533 -208 -710 -165 -370 -350 -639 -633 -925 -233 -236
-439 -388 -720 -532 -222 -114 -585 -231 -801 -258 -27 -4 -60 -8 -74 -11
-159 -26 -649 -26 -800 0 -14 3 -68 12 -120 21 -52 9 -107 18 -121 20 -47 8
-263 73 -350 105 -122 45 -148 57 -312 139 -744 371 -1295 1084 -1506 1951
-17 69 -37 170 -46 225 -9 55 -18 110 -20 123 -26 154 -26 688 0 817 2 11 7
40 10 65 10 82 39 228 66 330 28 105 99 323 110 335 5 5 9 14 9 21 0 37 149
336 240 481 128 205 243 346 450 553 221 222 429 373 700 508 180 90 211 103
345 149 207 71 439 121 640 139 39 3 72 8 74 10 6 6 511 -3 541 -9z"/>
<path d="M3252 6257 c-15 -5 -52 -10 -82 -12 -30 -1 -84 -8 -120 -14 -36 -7
-81 -15 -100 -18 -19 -3 -39 -8 -45 -12 -5 -4 -21 -6 -35 -5 -14 1 -29 -1 -35
-5 -5 -4 -22 -8 -36 -9 -15 -1 -58 -12 -95 -25 -38 -13 -96 -32 -129 -42 -59
-17 -117 -46 -144 -73 -8 -7 -68 -40 -135 -72 -188 -92 -316 -205 -383 -341
-24 -47 -71 -119 -105 -160 -83 -97 -128 -155 -128 -164 0 -4 -8 -19 -19 -33
-15 -22 -46 -101 -57 -147 -15 -58 -15 -89 0 -129 25 -65 27 -84 15 -156 -8
-46 -8 -81 -1 -113 9 -46 9 -48 -21 -71 l-30 -24 36 -44 c34 -42 37 -49 31
-91 -4 -25 -4 -56 -1 -69 8 -28 55 -80 67 -73 8 5 6 70 -4 125 -2 14 -10 63
-16 110 -7 47 -16 95 -20 106 -15 38 12 143 35 137 5 -2 10 -31 11 -65 2 -84
56 -279 106 -385 41 -87 45 -107 33 -179 -4 -24 -3 -56 4 -75 23 -69 139 -171
268 -236 87 -44 148 -58 188 -43 51 19 71 18 110 -9 22 -15 51 -44 66 -65 28
-42 69 -69 97 -64 40 6 274 -147 303 -198 6 -12 12 -36 14 -53 3 -33 10 -45
26 -47 5 -1 12 -2 17 -3 4 0 23 -15 42 -31 40 -35 166 -114 198 -124 11 -4 37
-8 57 -10 32 -4 37 -1 49 29 26 62 71 71 92 18 15 -40 17 -43 49 -88 15 -22
20 -47 22 -131 l2 -104 -37 -37 c-21 -21 -56 -60 -77 -88 -22 -27 -50 -61 -62
-75 -28 -30 -37 -58 -59 -175 -30 -167 -21 -207 76 -330 49 -61 140 -198 140
-210 0 -3 25 -44 55 -89 73 -111 191 -221 294 -275 106 -55 116 -71 116 -186
-1 -97 -31 -211 -93 -345 -17 -36 -37 -92 -45 -124 -9 -32 -31 -82 -50 -111
-20 -28 -50 -81 -67 -116 -18 -35 -43 -80 -56 -101 -19 -29 -22 -43 -15 -57
19 -35 156 -53 231 -30 19 5 46 12 58 15 32 6 67 29 127 82 40 36 216 132 240
132 4 0 23 7 43 16 113 49 171 81 211 119 25 23 82 61 126 83 120 60 304 203
352 273 70 103 111 136 328 272 50 31 104 69 121 84 39 35 128 190 178 308 64
153 95 216 154 320 62 109 93 207 86 274 -5 53 -10 61 -34 61 -10 0 -22 5 -25
10 -4 6 -30 24 -58 40 -42 24 -64 30 -115 30 -53 0 -74 6 -146 43 -45 23 -101
50 -123 60 -29 13 -45 28 -58 57 -10 22 -36 58 -58 80 -22 22 -50 59 -62 82
-40 80 -171 147 -291 148 -84 0 -212 95 -294 217 -20 31 -45 55 -60 59 -42 12
-203 11 -245 -1 -46 -14 -60 -13 -132 4 -37 9 -65 25 -98 55 -42 40 -98 66
-139 66 -16 0 -265 -103 -296 -123 -9 -5 -27 -30 -40 -54 -15 -29 -36 -51 -57
-61 -31 -15 -37 -14 -81 1 -68 24 -91 26 -149 9 -71 -20 -127 -5 -179 49 -34
35 -37 43 -39 101 -1 44 6 87 24 143 l26 81 -20 31 c-11 17 -43 42 -72 56 -47
23 -56 24 -95 14 -24 -7 -52 -11 -63 -11 -11 1 -28 2 -37 3 -10 1 -27 10 -38
21 -27 27 -19 63 42 181 37 71 49 105 46 130 -3 33 -4 34 -53 35 -86 2 -140
-20 -183 -75 -65 -83 -141 -123 -206 -107 -31 8 -100 77 -122 124 -24 49 -22
149 5 243 11 41 23 92 27 114 8 50 34 87 87 124 87 59 100 63 236 63 115 1
130 3 169 25 36 21 54 24 119 22 142 -4 194 -31 206 -107 7 -41 45 -121 74
-154 10 -11 13 -27 9 -42 -10 -39 12 -40 49 -3 23 23 35 45 36 63 3 81 -6 124
-45 216 -33 78 -29 86 90 188 44 39 114 84 166 109 51 24 49 20 63 133 3 25
17 61 30 80 13 18 34 50 47 70 15 25 30 38 45 38 12 0 25 5 28 10 3 6 16 10
29 10 31 0 56 30 53 65 -2 31 -7 27 107 81 l59 28 27 -34 28 -34 54 21 c29 12
63 24 76 28 30 9 55 49 47 75 -5 17 -14 21 -43 20 -77 -4 -91 0 -137 40 -39
34 -53 40 -90 40 -35 0 -43 3 -39 15 9 23 68 37 182 40 59 2 118 5 132 7 24 3
25 0 30 -56 6 -69 12 -73 110 -70 102 2 110 3 110 14 0 17 -44 52 -97 77 -29
13 -53 29 -53 34 0 6 -25 37 -56 69 -40 42 -70 64 -104 75 -26 9 -72 30 -101
48 -157 94 -168 99 -220 92 -42 -6 -60 -2 -131 29 -57 24 -94 34 -118 31 -19
-2 -40 -4 -47 -4 -6 -1 -19 -8 -28 -17 -13 -13 -15 -28 -10 -74 l6 -57 -35
-21 c-23 -13 -37 -31 -41 -49 -9 -42 -20 -58 -42 -61 -27 -4 -45 20 -45 60 l0
33 -139 34 c-77 19 -144 40 -150 47 -20 24 -4 48 56 82 71 40 129 49 218 33
88 -15 118 -3 81 34 -16 15 -16 18 2 35 41 41 103 27 91 -20 -5 -18 0 -20 48
-20 29 0 102 -12 161 -28 122 -31 147 -31 161 1 24 52 -25 96 -121 109 -144
19 -178 26 -186 38 -9 15 -273 20 -318 7z"/>
<path d="M3208 4325 c-2 -3 -33 -7 -69 -10 -69 -5 -114 -29 -114 -61 0 -19 6
-20 122 -39 13 -2 44 2 70 9 56 15 67 12 110 -24 17 -16 47 -33 66 -39 20 -7
39 -22 45 -36 7 -14 20 -26 29 -26 131 -9 218 1 210 24 -2 6 -44 32 -93 58
-49 25 -107 58 -128 72 -61 42 -229 91 -248 72z"/>
<path d="M3755 4129 c-5 -6 -8 -28 -9 -48 -1 -35 -2 -36 -43 -39 -46 -3 -49
-8 -31 -47 8 -18 17 -24 27 -19 9 3 44 8 77 10 46 3 64 0 74 -11 11 -13 16
-12 36 11 15 15 33 24 47 23 12 -2 32 1 45 5 16 5 29 3 41 -8 22 -20 35 -20
50 -2 9 11 6 18 -16 34 -69 48 -135 74 -223 87 -14 2 -35 7 -46 10 -13 4 -25
2 -29 -6z"/>
<path d="M3412 4038 c-16 -16 -15 -48 2 -48 8 0 22 -7 30 -16 35 -34 96 -20
96 22 0 27 -107 63 -128 42z"/>
</g>
</svg>
