<svg class="data-tag" width="256px" height="127px" viewBox="0 0 256 127" version="1.1" xmlns="http://www.w3.org/2000/svg" xmlns:xlink="http://www.w3.org/1999/xlink">
    <g id="Page-1" stroke="none" stroke-width="1" fill="none" fill-rule="evenodd">
        <g id="Artboard" transform="translate(-1.000000, -15.000000)" fill="#000000" fill-rule="nonzero">
            <g id="alert-tag" transform="translate(105.303492, 78.535229) rotate(-225.000000) translate(-105.303492, -78.535229) translate(-6.696508, -32.964771)">
                <path d="M83.5913564,0.437600534 C87.7933739,0.437600534 91.8232795,2.09700775 94.7945436,5.05071216 L218.849978,129.106147 C225.037296,135.256853 225.037296,145.229233 218.849978,151.379939 L151.475059,218.35619 C145.287741,224.506897 135.256002,224.506897 129.068684,218.35619 L5.01324972,94.3007557 C2.04196373,91.3470732 0.372679095,87.3410131 0.372679095,83.1638597 L0.372679095,16.1876082 C0.372679095,7.48901023 7.46606146,0.437600534 16.2164368,0.437600534 L83.5913564,0.437600534 Z M116.919399,74.1763268 C93.1658864,74.1763268 73.9193985,93.4297502 73.9193985,117.176327 C73.9193985,140.922903 93.1658864,160.176327 116.919399,160.176327 C140.65904,160.176327 159.919399,140.922903 159.919399,117.176327 C159.919399,93.4297502 140.65904,74.1763268 116.919399,74.1763268 Z M27.7449258,17.0919191 C21.3763095,17.0919191 16.2136702,22.422449 16.2136702,28.9981749 C16.2136702,35.5739007 21.3763095,40.9044307 27.7449258,40.9044307 C34.1135422,40.9044307 39.2761815,35.5739007 39.2761815,28.9981749 C39.2761815,22.422449 34.1135422,17.0919191 27.7449258,17.0919191 Z" id="Combined-Shape"></path>
                <path d="M117.186093,130.000955 C112.21555,130.000955 108.186093,134.030411 108.186093,139.000955 C108.186093,143.971498 112.21555,148.000955 117.186093,148.000955 C122.156637,148.000955 126.186093,143.971498 126.186093,139.000955 C126.186093,134.030411 122.156637,130.000955 117.186093,130.000955 Z M108.189632,96.5317547 L109.632783,123.731755 C109.700291,125.004555 110.723999,126.000955 111.963848,126.000955 L121.408339,126.000955 C122.648189,126.000955 123.671896,125.004555 123.739404,123.731755 L125.182556,96.5317547 C125.255511,95.1569547 124.190754,94.0009547 122.851491,94.0009547 L110.520502,94.0009547 C109.181239,94.0009547 108.116676,95.1569547 108.189632,96.5317547 L108.189632,96.5317547 Z" id="Shape" transform="translate(116.999116, 116.999116) rotate(-135.000000) translate(-116.999116, -116.999116) "></path>
            </g>
        </g>
    </g>
</svg>
