<svg class="data-tag" width="256px" height="127px" viewBox="0 0 256 127" version="1.1" xmlns="http://www.w3.org/2000/svg" xmlns:xlink="http://www.w3.org/1999/xlink">
    <g id="Page-1" stroke="none" stroke-width="1" fill="none" fill-rule="evenodd">
        <g id="Artboard" transform="translate(-1.000000, -15.000000)" fill="#000000" fill-rule="nonzero">
            <g id="check-tag" transform="translate(105.303492, 78.535229) rotate(-225.000000) translate(-105.303492, -78.535229) translate(-6.696508, -32.964771)">
                <path d="M83.4959211,0.0340818751 C87.6979385,0.0340818751 91.7278442,1.69348909 94.6991082,4.6471935 L218.754543,128.702628 C224.94186,134.853334 224.94186,144.825714 218.754543,150.97642 L151.379623,217.952672 C145.192306,224.103378 135.160567,224.103378 128.973249,217.952672 L4.9178144,93.8972371 C1.94652841,90.9435545 0.277243775,86.9374944 0.277243775,82.760341 L0.277243775,15.7840896 C0.277243775,7.08549157 7.37062614,0.0340818751 16.1210015,0.0340818751 L83.4959211,0.0340818751 Z M116.078778,75.0169472 C92.325266,75.0169472 73.0787781,94.2703706 73.0787781,118.016947 C73.0787781,141.763524 92.325266,161.016947 116.078778,161.016947 C139.818419,161.016947 159.078778,141.763524 159.078778,118.016947 C159.078778,94.2703706 139.818419,75.0169472 116.078778,75.0169472 Z M27.6494905,16.6884004 C21.2808741,16.6884004 16.1182349,22.0189304 16.1182349,28.5946562 C16.1182349,35.1703821 21.2808741,40.500912 27.6494905,40.500912 C34.0181069,40.500912 39.1807462,35.1703821 39.1807462,28.5946562 C39.1807462,22.0189304 34.0181069,16.6884004 27.6494905,16.6884004 Z" id="Combined-Shape"></path>
                <path d="M135.49497,105.323382 L90.3838675,104.535965 C88.8520514,104.509227 87.5884701,105.729453 87.5617322,107.26127 L87.4649012,112.808709 C87.4380386,114.340646 88.6582648,115.604227 90.1903261,115.630969 L126.980022,116.273259 L126.680209,133.449556 C126.653471,134.981372 127.873697,136.244954 129.405634,136.271816 L134.953073,136.368647 C136.484889,136.395385 137.748471,135.175159 137.775209,133.643343 L138.220271,108.145763 C138.247013,106.613702 137.026907,105.350245 135.49497,105.323382 L135.49497,105.323382 Z" id="Shape"></path>
            </g>
        </g>
    </g>
</svg>
