<?xml version="1.0" encoding="UTF-8" standalone="no"?>
<svg width="1024px" height="1024px" viewBox="0 0 1024 1024" version="1.1" xmlns="http://www.w3.org/2000/svg" xmlns:xlink="http://www.w3.org/1999/xlink" xmlns:sketch="http://www.bohemiancoding.com/sketch/ns">
    <title>knb-logo-sun-ocean-land-color-1024</title>
    <description>Created with Sketch (http://www.bohemiancoding.com/sketch)</description>
    <defs></defs>
    <g id="Circle Sun Ocean Land 5 All Sizes" stroke="none" stroke-width="1" fill="none" fill-rule="evenodd">
        <g id="1024" transform="translate(0.000000, -1.000000)">
            <path d="M511.15894,1018.95567 C791.255103,1018.95567 1018.31788,791.983896 1018.31788,512 C1018.31788,232.016104 791.255103,5.04433498 511.15894,5.04433498 C231.062778,5.04433498 4,232.016104 4,512 C4,791.983896 231.062778,1018.95567 511.15894,1018.95567 Z M511.15894,1018.95567" id="Oval 1" fill="#550000"></path>
            <path d="M1018.66608,516.203612 C514.582053,1025.94375 398.870755,105.392972 4.34819868,516.203612 C4.34819868,796.651823 231.787536,1024 512.348199,1024 C792.908861,1024 1018.66608,796.651823 1018.66608,516.203612 Z M1018.66608,516.203612" id="Oval_9" fill="#3F3F3F"></path>
            <path d="M4.34819868,508.152854 C508.430543,-1.58728407 624.141841,918.963494 1018.66608,508.152854 C1018.66608,227.704644 792.908861,0.356466338 512.348199,0.356466338 C231.785854,0.356466338 4.34819868,227.704644 4.34819868,508.152854 Z M4.34819868,508.152854" id="Oval_9_1_" fill="#FFBB11"></path>
            <g id="Group" transform="translate(152.026490, 107.612479)" fill="#999900">
                <path d="M13.2651921,171.367829 C18.6816159,173.427599 42.5794834,63.9588046 193.573232,96.4443218 C78.3800265,51.0268112 -2.95884768,146.134384 0.93189404,152.959369 C7.27348344,163.180874 7.84876821,169.308059 13.2651921,171.367829 L13.2651921,171.367829 Z M13.2651921,171.367829" id="Path_1"></path>
                <path d="M101.261894,135.637123 C140.855616,69.2889852 185.261881,204.211494 185.261881,204.211494 C185.261881,204.211494 61.6698543,201.986943 101.261894,135.637123 L101.261894,135.637123 Z M101.261894,135.637123" id="Path"></path>
                <path d="M178.028768,90.4802365 C188.082795,39.8737865 246.262252,110.069071 246.262252,110.069071 C246.262252,110.069071 167.974742,141.085005 178.028768,90.4802365 L178.028768,90.4802365 Z M178.028768,90.4802365" id="Path_1_"></path>
                <path d="M113.452212,63.3164926 C72.2083311,44.950069 142.855656,0.558239737 142.855656,0.558239737 C142.855656,0.558239737 154.696093,81.6845977 113.452212,63.3164926 L113.452212,63.3164926 Z M113.452212,63.3164926" id="Path_2_"></path>
            </g>
            <g id="Group" transform="translate(577.602649, 707.888342)" fill="#EECC77">
                <g transform="translate(53.827815, 107.612479)">
                    <path d="M112.656071,56.9506738 C102.148975,54.4375578 91.3599314,45.3669492 80.9155701,67.6253395 C70.4712071,89.8837296 35.3515931,81.21385 22.7132586,92.6240733 C-2.79121321,115.650188 7.33842656,84.59554 37.530257,72.3816511 C74.1608966,57.562988 53.4085267,16.1020967 86.4908737,33.9855166 C119.573221,51.8689362 119.060573,22.9072596 135.883767,38.3679933 C152.706962,53.8287267 153.264762,66.6635716 112.656071,56.9506738 Z M112.656071,56.9506738" id="Path_4_" transform="translate(77.440203, 65.243090) rotate(-19.000000) translate(-77.440203, -65.243090) "></path>
                    <path d="M148.804554,22.1730421 C136.218574,22.1730434 141.102215,2.66880734 148.804555,2.66880869 C156.506894,2.66881005 161.390534,22.1730409 148.804554,22.1730421 Z M148.804554,22.1730421" id="Path_5_" transform="translate(148.804554, 12.420925) rotate(-300.000000) translate(-148.804554, -12.420925) "></path>
                </g>
                <path d="M267.267751,43.607753 C264.011715,45.22349 254.962494,46.5526699 242.483602,49.566761 C230.795914,52.3897502 216.087831,63.8166218 212.488715,60.0117713 C211.800001,56.3127615 211.329099,53.91078 213.921626,50.0780787 C257.966502,42.5098698 276.913029,32.2455677 281.072184,30.3314155 C282.632841,29.6131604 317.728587,7.27053793 328.69673,1.20671897 C330.116274,0.326415449 331.56562,6.46573345 331.357433,6.94459891 C316.53599,18.7843467 283.245099,34.2475471 275.487467,47.0228441 C268.59959,58.3658232 265.185107,86.4794734 225.336623,111.49261 C221.198675,112.345649 218.766844,108.186953 219.186375,105.645319 C219.813482,101.846126 236.508446,95.9717108 249.175543,79.5840305 C262.278379,62.6326242 270.473876,42.0167833 267.267751,43.607753 Z M267.267751,43.607753" id="Path_5_"></path>
                <g transform="translate(104.291391, 93.320197) rotate(-34.000000) translate(-104.291391, -93.320197) translate(3.364238, 57.169130)">
                    <path d="M79.7637197,30.9137668 C44.4258508,55.6631186 41.6809083,6.86444749 16.8312848,5.47022879 C-22.8983879,3.24114575 20.3833745,-8.20364427 61.6725001,13.5830749 C102.961625,35.3697943 85.0620085,-8.55490208 125.143749,10.6301069 C188.049699,40.7398555 177.40213,34.5181122 171.451682,59.1084399 C157.247756,105.939911 115.101589,6.1644155 79.7637197,30.9137668 Z M79.7637197,30.9137668" id="Path_3_"></path>
                    <path d="M190.625573,70.5471827 C178.852876,70.5471839 183.420945,52.3032762 190.625573,52.3032774 C197.830201,52.3032787 202.39827,70.5471815 190.625573,70.5471827 Z M190.625573,70.5471827" id="Path_5_" transform="translate(190.625573, 61.425230) rotate(-248.000000) translate(-190.625573, -61.425230) "></path>
                </g>
            </g>
            <g id="Group" transform="translate(547.000000, 67.000000)" fill="#6E4D2A">
                <path d="M4.83931126,313.643836 C38.4026358,307.847895 66.8338146,306.460703 109.837192,295.918043 C145.469523,268.377655 316.84551,238.247842 306.567762,293.717031 C305.634185,298.758003 305.926874,291.791777 304.135417,290.318831 C301.916702,288.496144 297.191629,291.137695 296.178993,291.699297 C293.072119,293.417734 290.089722,299.521379 272.223934,303.545077 C225.304583,331.147678 185.889166,337.167251 137.871391,335.336158 C127.546543,338.880644 121.854252,338.023107 121.854252,338.023107 L34.878596,367.851941 C34.878596,367.851941 26.185404,368.608591 26.7203179,364.209931 C19.9178278,362.190516 11.8234702,360.236677 16.6444238,354.758529 C3.76107285,352.349018 5.08994702,349.586404 7.46509934,344.456315 C-8.35186755,340.577222 6.98401325,323.150726 6.98401325,323.150726 C6.98401325,323.150726 -1.87570861,315.979363 4.83931126,313.643836 L4.83931126,313.643836 Z M4.83931126,313.643836" id="Path_16"></path>
                <path d="M277.319073,316.310608 C259.661868,324.658982 231.701682,348.707008 157.427709,348.912144 C155.01555,349.327461 153.187086,355.384026 163.639775,354.148164 C159.276358,360.095435 170.248821,360.324112 170.248821,360.324112 C170.248821,360.324112 166.583483,366.160407 176.41547,367.278568 C170.018371,375.388177 183.086755,374.619757 183.086755,374.619757 C183.086755,374.619757 177.182517,383.464158 196.67155,383.590266 C188.91698,392.123599 204.735629,391.202167 204.735629,391.202167 C204.735629,391.202167 203.347881,398.51309 212.890543,395.375514 C213.494424,404.546115 227.555258,398.800617 227.555258,398.800617 C227.555258,398.800617 221.117788,407.36758 236.608424,404.300624 C241.331815,417.763954 250.731497,410.49843 250.731497,410.49843 C250.731497,410.49843 249.967815,426.751278 264.703179,418.96955 C271.078411,443.743961 281.45204,426.541097 281.45204,426.541097 C281.45204,426.541097 289.120821,451.135593 293.967007,451.421438 C298.813192,451.707284 300.609695,427.672709 300.609695,427.672709 C300.609695,427.672709 306.032848,446.309846 311.181815,444.693977 C316.330781,443.078108 318.165974,422.162614 318.165974,422.162614 C318.165974,422.162614 323.87845,432.115087 327.966,431.262594 C332.724715,427.319606 331.955987,410.738877 331.955987,410.738877 C331.955987,410.738877 341.715642,412.583422 344.425536,410.570732 C345.740954,404.838686 339.693735,397.855645 341.044477,395.234273 C342.395219,392.6129 350.016901,398.526542 352.783987,394.349833 C322.034848,364.435245 327.68004,343.124611 307.052212,333.765688 C286.427748,324.41181 285.637152,321.090956 277.319073,316.310608 L277.319073,316.310608 Z M277.319073,316.310608" id="Path_2"></path>
                <path d="M238.539536,250.437557 C246.129258,245.141005 217.450808,228.824263 213.294291,154.881038 C204.838278,131.300453 188.854781,111.901622 188.854781,111.901622 C188.854781,111.901622 167.962861,53.3486634 134.397854,27.7570706 C127.548265,29.9177274 155.373881,70.6423251 155.373881,70.6423251 C155.373881,70.6423251 108.521815,5.04915599 99.6536821,0.443678161 C97.7293377,13.683376 120.187311,44.1108046 120.187311,44.1108046 C120.187311,44.1108046 80.3850066,-2.15247291 78.8761457,1.32979967 C71.4546358,7.88407225 114.397457,57.4682036 114.397457,57.4682036 C114.397457,57.4682036 113.105589,59.1193826 112.234252,58.3509622 C104.134848,51.204821 63.005351,12.4357438 57.7739603,14.3172808 C51.9807417,16.4005911 93.626649,59.8020493 93.626649,59.8020493 C93.626649,59.8020493 47.3212715,33.2352184 40.9090331,35.3672906 C36.2983444,34.0809852 44.2295364,43.5475205 52.6048079,48.3564532 C49.4205563,58.6721182 57.7638675,64.9254122 61.6159205,70.6709097 C56.0211921,73.1644926 45.7484901,69.5392972 61.8783311,87.2314614 C48.3658675,83.957688 60.7630861,100.240801 63.0810464,101.945787 C50.0328477,104.807606 64.9128742,119.389097 64.9128742,119.389097 C64.9128742,119.389097 48.7292053,121.141163 61.2525828,133.738548 C60.8522384,137.641182 59.9926755,135.319107 62.6369669,141.538772 C61.143245,142.742686 54.0110596,147.787021 63.2643974,153.244992 C61.763947,155.878135 54.3727152,158.760131 64.0062119,165.842378 C59.0103179,169.523061 59.7168079,176.551501 71.2813775,177.683113 C67.0962649,185.590949 67.4511921,188.538522 74.3310596,193.337366 C63.8480927,198.023553 76.9787152,203.454621 79.0443576,206.417327 C72.3848477,215.867048 85.8737616,219.546049 90.0740132,219.855435 C70.2317351,227.78513 89.759457,233.407882 89.759457,233.407882 C89.759457,233.407882 79.9173775,243.172033 96.6561457,247.200775 C94.4693907,250.721721 88.2674172,255.332243 103.931311,259.041511 C99.3963179,263.932834 105.426715,269.103278 110.397377,270.379494 C113.024848,273.897077 116.680093,276.109859 116.680093,276.109859 C116.680093,276.109859 163.737377,251.991212 238.539536,250.437557 L238.539536,250.437557 Z M238.539536,250.437557" id="Path_3"></path>
            </g>
            <g id="Group" transform="translate(108.291391, 529.655172)" fill="#C5C5C5">
                <path d="M2.83100662,11.3598424 C11.147404,0.664170772 66.8575099,-17.1944565 142.509139,42.0630279 C203.743325,90.0262463 242.492623,186.159501 257.465166,213.839448 C279.176278,253.978903 384.264993,153.265392 386.076636,155.140204 C387.144781,156.244913 387.291126,219.204939 346.260874,262.722417 C343.014384,265.854949 341.989974,263.78509 346.952225,266.083626 C360.833073,272.516834 366.417709,297.962141 375.904861,307.690982 C393.296291,325.52775 405.616132,330.361905 405.616132,330.361905 C403.237616,335.982975 370.315179,343.810102 341.715788,328.276913 C313.116397,312.745406 272.782543,264.503067 255.340649,253.429071 C237.898755,242.355074 109.35457,198.10953 56.9195497,140.040828 C22.0996821,95.7431593 -5.48370861,22.0538325 2.83100662,11.3598424 L2.83100662,11.3598424 Z M2.83100662,11.3598424" id="Path_1_2_"></path>
                <path d="M178.777311,53.7137603 C187.810291,53.263133 271.394795,56.350266 290.915788,79.0598621 C310.436781,101.769458 245.900596,120.065261 260.247391,176.128 C258.114464,185.644979 235.410901,115.601025 178.777311,53.7137603 L178.777311,53.7137603 Z M178.777311,53.7137603" id="Path_2_1_"></path>
                <path d="M118.559126,208.157846 C108.789377,215.182923 118.128503,274.462266 143.725311,291.544066 C157.182265,280.100151 150.203152,279.182082 155.333616,270.944683 C164.950291,260.891323 159.883748,261.261241 164.514623,251.885504 C165.518848,244.382897 172.393669,238.92997 172.657762,234.479186 C150.055126,225.348939 151.36045,225.481773 118.559126,208.157846 L118.559126,208.157846 Z M118.559126,208.157846" id="Path_3_1_"></path>
                <path d="M41.7283311,145.310476 C41.7283311,145.310476 50.6065563,162.82777 88.5198411,190.71958 C91.3205695,200.650194 85.9344238,221.123468 74.6171258,220.503015 C58.5831656,211.741005 54.8185828,192.633064 52.0178543,186.218351 C34.967894,173.831146 41.7283311,145.310476 41.7283311,145.310476 L41.7283311,145.310476 Z M41.7283311,145.310476" id="Path_4"></path>
            </g>
        </g>
    </g>
</svg>