<?xml version="1.0" encoding="UTF-8" standalone="no"?>
<svg width="1024px" height="1024px" viewBox="0 0 1024 1024" version="1.1" xmlns="http://www.w3.org/2000/svg" xmlns:xlink="http://www.w3.org/1999/xlink" xmlns:sketch="http://www.bohemiancoding.com/sketch/ns">
    <title>knb-logo-sun-ocean-land-white-1024</title>
    <description>Created with Sketch (http://www.bohemiancoding.com/sketch)</description>
    <defs></defs>
    <g id="Circle Sun Ocean Land 5 All Sizes" stroke="none" stroke-width="1" fill="none" fill-rule="evenodd">
        <g id="1024">
            <path d="M512.15894,1018.95567 C792.255103,1018.95567 1019.31788,791.983896 1019.31788,512 C1019.31788,232.016104 792.255103,5.04433498 512.15894,5.04433498 C232.062778,5.04433498 5,232.016104 5,512 C5,791.983896 232.062778,1018.95567 512.15894,1018.95567 Z M512.15894,1018.95567" id="Oval 1"></path>
            <g id="Group" transform="translate(5.000000, 0.000000)" fill="#FFFFFF">
                <path d="M283.068702,583.368933 C339.702291,645.256197 362.405854,715.300151 364.538781,705.783172 C350.191987,649.720433 414.728172,631.424631 395.207179,608.715034 C375.686185,586.005438 292.101682,582.918305 283.068702,583.368933 Z M735.468178,861.438112 C777.026659,857.400941 772.320632,845.446959 751.380466,836.305645 C730.440302,827.16433 740.354019,854.381231 703.251773,848.242685 C666.149528,842.104137 699.269625,874.54987 669.459159,900.486961 C644.888676,921.864918 645.421318,954.525553 662.0397,924.45049 C670.274675,909.547272 706.303559,906.310977 708.932275,881.864903 C711.56099,857.41883 724.715332,862.48269 735.468178,861.438112 Z M107.122397,541.015015 C98.8076821,551.709005 126.391073,625.398332 161.21094,669.696 C213.64596,727.764703 342.190146,772.010246 359.63204,783.084243 C377.073934,794.15824 417.407788,842.400578 446.007179,857.932085 C474.60657,873.465274 507.529007,865.638148 509.907523,860.017077 C509.907523,860.017077 497.587682,855.182923 480.196252,837.346154 C470.709099,827.617314 465.124464,802.172007 451.243616,795.738798 C446.281364,793.440263 447.305775,795.510122 450.552265,792.377589 C491.582517,748.860112 491.436172,685.900085 490.368026,684.795376 C488.556384,682.920565 383.467669,783.634076 361.756556,743.494621 C346.784013,715.814673 308.034715,619.681419 246.80053,571.7182 C171.148901,512.460716 115.438795,530.319343 107.122397,541.015015 Z M767.789437,832.797805 C774.082428,843.697582 788.531767,829.71611 784.680599,823.045688 C780.82943,816.375266 761.496446,821.898027 767.789437,832.797805 Z M222.850517,737.813018 C213.080768,744.838095 222.419894,804.117438 248.016702,821.199238 C261.473656,809.755323 254.494543,808.837255 259.625007,800.599856 C269.241682,790.546496 264.175139,790.916414 268.806013,781.540677 C269.810238,774.038069 276.68506,768.585143 276.949152,764.134358 C254.346517,755.004112 255.651841,755.136946 222.850517,737.813018 Z M840.8704,751.496095 C844.076525,749.905125 835.881028,770.520966 822.778192,787.472372 C810.111095,803.860052 793.416131,809.734468 792.789024,813.533661 C792.369493,816.075295 794.801325,820.23399 798.939272,819.380951 C838.787756,794.367815 842.202239,766.254165 849.090116,754.911186 C856.847748,742.135889 890.138639,726.672688 904.960082,714.83294 C905.168269,714.354075 903.718923,708.214757 902.299379,709.095061 C891.331236,715.158879 856.23549,737.501502 854.674833,738.219757 C850.515678,740.133909 831.569151,750.398211 787.524275,757.96642 C784.931748,761.799122 785.40265,764.201103 786.091364,767.900113 C789.69048,771.704963 804.398563,760.278092 816.086251,757.455103 C828.565143,754.441011 837.614364,753.111832 840.8704,751.496095 Z M1014.66608,516.203612 C1014.66608,796.651823 788.908861,1024 508.348199,1024 C227.787536,1024 0.348198675,796.651823 0.348198675,516.203612 C394.870755,105.392972 510.582053,1025.94375 1014.66608,516.203612 Z M657.420098,808.701061 C672.876858,768.422233 763.611362,827.57203 749.199125,780.804246 C740.381533,757.090492 752.687922,756.294507 683.699368,766.508954 C639.741979,773.017286 679.143812,799.423171 632.730597,804.449748 C586.317382,809.476325 556.83502,843.16734 591.018899,822.798783 C612.399807,810.05891 641.963338,848.979889 657.420098,808.701061 Z M146.019722,674.965649 C146.019722,674.965649 139.259285,703.486319 156.309245,715.873524 C159.109974,722.288236 162.874556,741.396177 178.908517,750.158187 C190.225815,750.77864 195.61196,730.305366 192.811232,720.374752 C154.897947,692.482943 146.019722,674.965649 146.019722,674.965649 Z M757.467917,773.899609 C759.915599,785.415044 776.811074,777.153678 775.313149,770.106488 C773.815224,763.059299 755.020235,762.384175 757.467917,773.899609 Z M757.467917,773.899609" id="Oval_9"></path>
                <path d="M0.348198675,508.152854 C0.348198675,227.704644 227.785854,0.356466338 508.348199,0.356466338 C788.908861,0.356466338 1014.66608,227.704644 1014.66608,508.152854 C620.141841,918.963494 504.430543,-1.58728407 0.348198675,508.152854 Z M249.288384,243.249603 C209.696344,309.599422 333.288371,311.823974 333.288371,311.823974 C333.288371,311.823974 288.882106,176.901465 249.288384,243.249603 Z M547.839311,380.643836 C541.124291,382.979363 549.984013,390.150726 549.984013,390.150726 C549.984013,390.150726 534.648132,407.577222 550.465099,411.456315 C548.089947,416.586404 546.761073,419.349018 559.644424,421.758529 C554.82347,427.236677 562.917828,429.190516 569.720318,431.209931 C569.185404,435.608591 577.878596,434.851941 577.878596,434.851941 L664.854252,405.023107 C664.854252,405.023107 670.546543,405.880644 680.871391,402.336158 C728.889166,404.167251 768.304583,398.147678 815.223934,370.545077 C833.089722,366.521379 836.072119,360.417734 839.178993,358.699297 C840.191629,358.137695 844.916702,355.496144 847.135417,357.318831 C848.926874,358.791777 848.634185,365.758003 849.567762,360.717031 C859.84551,305.247842 688.469523,335.377655 652.837192,362.918043 C609.833815,373.460703 581.402636,374.847895 547.839311,380.643836 Z M161.291682,278.980309 C166.510221,280.964827 188.884461,179.421139 325.553828,201.052605 C319.123707,247.460423 394.288742,217.68155 394.288742,217.68155 C394.288742,217.68155 336.109285,147.486266 326.055258,198.092716 C326.017101,198.284772 325.980216,198.475652 325.944595,198.665363 C219.113658,167.190655 145.246366,254.060374 148.958384,260.571849 C155.299974,270.793353 155.875258,276.920539 161.291682,278.980309 Z M820.319073,383.310608 C802.661868,391.658982 774.701682,415.707008 700.427709,415.912144 C698.01555,416.327461 696.187086,422.384026 706.639775,421.148164 C702.276358,427.095435 713.248821,427.324112 713.248821,427.324112 C713.248821,427.324112 709.583483,433.160407 719.41547,434.278568 C713.018371,442.388177 726.086755,441.619757 726.086755,441.619757 C726.086755,441.619757 720.182517,450.464158 739.67155,450.590266 C731.91698,459.123599 747.735629,458.202167 747.735629,458.202167 C747.735629,458.202167 746.347881,465.51309 755.890543,462.375514 C756.494424,471.546115 770.555258,465.800617 770.555258,465.800617 C770.555258,465.800617 764.117788,474.36758 779.608424,471.300624 C784.331815,484.763954 793.731497,477.49843 793.731497,477.49843 C793.731497,477.49843 792.967815,493.751278 807.703179,485.96955 C814.078411,510.743961 824.45204,493.541097 824.45204,493.541097 C824.45204,493.541097 832.120821,518.135593 836.967007,518.421438 C841.813192,518.707284 843.609695,494.672709 843.609695,494.672709 C843.609695,494.672709 849.032848,513.309846 854.181815,511.693977 C859.330781,510.078108 861.165974,489.162614 861.165974,489.162614 C861.165974,489.162614 866.87845,499.115087 870.966,498.262594 C875.724715,494.319606 874.955987,477.738877 874.955987,477.738877 C874.955987,477.738877 884.715642,479.583422 887.425536,477.570732 C888.740954,471.838686 882.693735,464.855645 884.044477,462.234273 C885.395219,459.6129 893.016901,465.526542 895.783987,461.349833 C865.034848,431.435245 870.68004,410.124611 850.052212,400.765688 C829.427748,391.41181 828.637152,388.090956 820.319073,383.310608 Z M783.539536,317.437557 C791.129258,312.141005 762.450808,295.824263 758.294291,221.881038 C749.838278,198.300453 733.854781,178.901622 733.854781,178.901622 C733.854781,178.901622 712.962861,120.348663 679.397854,94.7570706 C672.548265,96.9177274 700.373881,137.642325 700.373881,137.642325 C700.373881,137.642325 653.521815,72.049156 644.653682,67.4436782 C642.729338,80.683376 665.187311,111.110805 665.187311,111.110805 C665.187311,111.110805 625.385007,64.8475271 623.876146,68.3297997 C616.454636,74.8840722 659.397457,124.468204 659.397457,124.468204 C659.397457,124.468204 658.105589,126.119383 657.234252,125.350962 C649.134848,118.204821 608.005351,79.4357438 602.77396,81.3172808 C596.980742,83.4005911 638.626649,126.802049 638.626649,126.802049 C638.626649,126.802049 592.321272,100.235218 585.909033,102.367291 C581.298344,101.080985 589.229536,110.547521 597.604808,115.356453 C594.420556,125.672118 602.763868,131.925412 606.615921,137.67091 C601.021192,140.164493 590.74849,136.539297 606.878331,154.231461 C593.365868,150.957688 605.763086,167.240801 608.081046,168.945787 C595.032848,171.807606 609.912874,186.389097 609.912874,186.389097 C609.912874,186.389097 593.729205,188.141163 606.252583,200.738548 C605.852238,204.641182 604.992675,202.319107 607.636967,208.538772 C606.143245,209.742686 599.01106,214.787021 608.264397,220.244992 C606.763947,222.878135 599.372715,225.760131 609.006212,232.842378 C604.010318,236.523061 604.716808,243.551501 616.281377,244.683113 C612.096265,252.590949 612.451192,255.538522 619.33106,260.337366 C608.848093,265.023553 621.978715,270.454621 624.044358,273.417327 C617.384848,282.867048 630.873762,286.546049 635.074013,286.855435 C615.231735,294.78513 634.759457,300.407882 634.759457,300.407882 C634.759457,300.407882 624.917377,310.172033 641.656146,314.200775 C639.469391,317.721721 633.267417,322.332243 648.931311,326.041511 C644.396318,330.932834 650.426715,336.103278 655.397377,337.379494 C658.024848,340.897077 661.680093,343.109859 661.680093,343.109859 C661.680093,343.109859 708.737377,318.991212 783.539536,317.437557 Z M261.478702,170.928972 C302.722583,189.297077 290.882146,108.170719 290.882146,108.170719 C290.882146,108.170719 220.234821,152.562548 261.478702,170.928972 Z M261.478702,170.928972" id="Oval_9_1_"></path>
            </g>
        </g>
    </g>
</svg>