<?xml version="1.0" encoding="UTF-8" standalone="no"?>
<svg width="1024px" height="1024px" viewBox="0 0 1024 1024" version="1.1" xmlns="http://www.w3.org/2000/svg" xmlns:xlink="http://www.w3.org/1999/xlink" xmlns:sketch="http://www.bohemiancoding.com/sketch/ns">
    <title>knb-logo-sun-ocean-land-bw-1024</title>
    <description>Created with Sketch (http://www.bohemiancoding.com/sketch)</description>
    <defs></defs>
    <g id="Circle Sun Ocean Land 5 All Sizes" stroke="none" stroke-width="1" fill="none" fill-rule="evenodd">
        <g id="1024">
            <g id="Group" transform="translate(4.000000, 0.000000)">
                <path d="M509.15894,1018.95567 C789.255103,1018.95567 1016.31788,791.983896 1016.31788,512 C1016.31788,232.016104 789.255103,5.04433498 509.15894,5.04433498 C229.062778,5.04433498 2,232.016104 2,512 C2,791.983896 229.062778,1018.95567 509.15894,1018.95567 Z M509.15894,1018.95567" id="Oval 1" fill="#FFFFFF"></path>
                <g>
                    <path d="M507.15894,1018.95567 C787.255103,1018.95567 1014.31788,791.983896 1014.31788,512 C1014.31788,232.016104 787.255103,5.04433498 507.15894,5.04433498 C227.062778,5.04433498 0,232.016104 0,512 C0,791.983896 227.062778,1018.95567 507.15894,1018.95567 Z M507.15894,1018.95567" id="Oval 1"></path>
                    <path d="M1014.66608,516.203612 C510.582053,1025.94375 394.870755,105.392972 0.348198675,516.203612 C0.348198675,796.651823 227.787536,1024 508.348199,1024 C788.908861,1024 1014.66608,796.651823 1014.66608,516.203612 Z M1014.66608,516.203612" id="Oval_9" fill="#000000"></path>
                    <path d="M0.348198675,508.152854 C504.430543,-1.58728407 620.141841,918.963494 1014.66608,508.152854 C1014.66608,227.704644 788.908861,0.356466338 508.348199,0.356466338 C227.785854,0.356466338 0.348198675,227.704644 0.348198675,508.152854 Z M0.348198675,508.152854" id="Oval_9_1_" fill="#000000"></path>
                    <g transform="translate(148.000000, 108.000000)" fill="#FFFFFF">
                        <path d="M13.2916821,170.980309 C18.708106,173.040079 42.6059735,63.5712841 193.599722,96.0568013 C78.4065166,50.6392906 -2.93235762,145.746864 0.958384106,152.571849 C7.29997351,162.793353 7.87525828,168.920539 13.2916821,170.980309 L13.2916821,170.980309 Z M13.2916821,170.980309" id="Path_1"></path>
                        <path d="M101.288384,135.249603 C140.882106,68.9014647 185.288371,203.823974 185.288371,203.823974 C185.288371,203.823974 61.6963444,201.599422 101.288384,135.249603 L101.288384,135.249603 Z M101.288384,135.249603" id="Path"></path>
                        <path d="M178.055258,90.0927159 C188.109285,39.486266 246.288742,109.68155 246.288742,109.68155 C246.288742,109.68155 168.001232,140.697484 178.055258,90.0927159 L178.055258,90.0927159 Z M178.055258,90.0927159" id="Path_1_"></path>
                        <path d="M113.478702,62.9289721 C72.2348212,44.5625484 142.882146,0.170719212 142.882146,0.170719212 C142.882146,0.170719212 154.722583,81.2970772 113.478702,62.9289721 L113.478702,62.9289721 Z M113.478702,62.9289721" id="Path_2_"></path>
                    </g>
                    <path d="M740.086535,872.451495 C729.579439,869.938379 718.790395,860.86777 708.346034,883.126161 C697.901671,905.384551 662.782057,896.714671 650.143722,908.124894 C624.63925,931.151009 634.76889,900.096361 664.960721,887.882472 C701.59136,873.063809 680.83899,831.602918 713.921337,849.486338 C747.003685,867.369757 746.491037,838.408081 763.31423,853.868814 C780.137425,869.329548 780.695225,882.164393 740.086535,872.451495 Z M740.086535,872.451495" id="Path_4_" fill="#FFFFFF" transform="translate(704.870666, 880.743911) rotate(-19.000000) translate(-704.870666, -880.743911) "></path>
                    <path d="M776.235018,837.673863 C763.649038,837.673864 768.532679,818.169628 776.235018,818.16963 C783.937357,818.169631 788.820998,837.673862 776.235018,837.673863 Z M776.235018,837.673863" id="Path_5_" fill="#FFFFFF" transform="translate(776.235018, 827.921746) rotate(-300.000000) translate(-776.235018, -827.921746) "></path>
                    <path d="M840.8704,751.496095 C837.614364,753.111832 828.565143,754.441011 816.086251,757.455103 C804.398563,760.278092 789.69048,771.704963 786.091364,767.900113 C785.40265,764.201103 784.931748,761.799122 787.524275,757.96642 C831.569151,750.398211 850.515678,740.133909 854.674833,738.219757 C856.23549,737.501502 891.331236,715.158879 902.299379,709.095061 C903.718923,708.214757 905.168269,714.354075 904.960082,714.83294 C890.138639,726.672688 856.847748,742.135889 849.090116,754.911186 C842.202239,766.254165 838.787756,794.367815 798.939272,819.380951 C794.801325,820.23399 792.369493,816.075295 792.789024,813.533661 C793.416131,809.734468 810.111095,803.860052 822.778192,787.472372 C835.881028,770.520966 844.076525,749.905125 840.8704,751.496095 Z M840.8704,751.496095" id="Path_5_" fill="#FFFFFF"></path>
                    <path d="M658.685428,802.397212 C623.34756,827.146564 620.602617,778.347893 595.752994,776.953674 C556.023321,774.724591 599.305083,763.279801 640.594209,785.06652 C681.883334,806.85324 663.983717,762.928543 704.065458,782.113552 C766.971408,812.223301 756.323839,806.001558 750.373391,830.591885 C736.169465,877.423356 694.023298,777.647861 658.685428,802.397212 Z M658.685428,802.397212" id="Path_3_" fill="#FFFFFF" transform="translate(668.362243, 807.618492) rotate(-34.000000) translate(-668.362243, -807.618492) "></path>
                    <path d="M766.390533,781.125001 C754.617836,781.125003 759.185905,762.881095 766.390533,762.881096 C773.595161,762.881097 778.16323,781.125 766.390533,781.125001 Z M766.390533,781.125001" id="Path_5_" fill="#FFFFFF" transform="translate(766.390533, 772.003049) rotate(-282.000000) translate(-766.390533, -772.003049) "></path>
                    <g transform="translate(543.000000, 67.000000)" fill="#FFFFFF">
                        <path d="M4.83931126,313.643836 C38.4026358,307.847895 66.8338146,306.460703 109.837192,295.918043 C145.469523,268.377655 316.84551,238.247842 306.567762,293.717031 C305.634185,298.758003 305.926874,291.791777 304.135417,290.318831 C301.916702,288.496144 297.191629,291.137695 296.178993,291.699297 C293.072119,293.417734 290.089722,299.521379 272.223934,303.545077 C225.304583,331.147678 185.889166,337.167251 137.871391,335.336158 C127.546543,338.880644 121.854252,338.023107 121.854252,338.023107 L34.878596,367.851941 C34.878596,367.851941 26.185404,368.608591 26.7203179,364.209931 C19.9178278,362.190516 11.8234702,360.236677 16.6444238,354.758529 C3.76107285,352.349018 5.08994702,349.586404 7.46509934,344.456315 C-8.35186755,340.577222 6.98401325,323.150726 6.98401325,323.150726 C6.98401325,323.150726 -1.87570861,315.979363 4.83931126,313.643836 L4.83931126,313.643836 Z M4.83931126,313.643836" id="Path_16"></path>
                        <path d="M277.319073,316.310608 C259.661868,324.658982 231.701682,348.707008 157.427709,348.912144 C155.01555,349.327461 153.187086,355.384026 163.639775,354.148164 C159.276358,360.095435 170.248821,360.324112 170.248821,360.324112 C170.248821,360.324112 166.583483,366.160407 176.41547,367.278568 C170.018371,375.388177 183.086755,374.619757 183.086755,374.619757 C183.086755,374.619757 177.182517,383.464158 196.67155,383.590266 C188.91698,392.123599 204.735629,391.202167 204.735629,391.202167 C204.735629,391.202167 203.347881,398.51309 212.890543,395.375514 C213.494424,404.546115 227.555258,398.800617 227.555258,398.800617 C227.555258,398.800617 221.117788,407.36758 236.608424,404.300624 C241.331815,417.763954 250.731497,410.49843 250.731497,410.49843 C250.731497,410.49843 249.967815,426.751278 264.703179,418.96955 C271.078411,443.743961 281.45204,426.541097 281.45204,426.541097 C281.45204,426.541097 289.120821,451.135593 293.967007,451.421438 C298.813192,451.707284 300.609695,427.672709 300.609695,427.672709 C300.609695,427.672709 306.032848,446.309846 311.181815,444.693977 C316.330781,443.078108 318.165974,422.162614 318.165974,422.162614 C318.165974,422.162614 323.87845,432.115087 327.966,431.262594 C332.724715,427.319606 331.955987,410.738877 331.955987,410.738877 C331.955987,410.738877 341.715642,412.583422 344.425536,410.570732 C345.740954,404.838686 339.693735,397.855645 341.044477,395.234273 C342.395219,392.6129 350.016901,398.526542 352.783987,394.349833 C322.034848,364.435245 327.68004,343.124611 307.052212,333.765688 C286.427748,324.41181 285.637152,321.090956 277.319073,316.310608 L277.319073,316.310608 Z M277.319073,316.310608" id="Path_2"></path>
                        <path d="M240.539536,250.437557 C248.129258,245.141005 219.450808,228.824263 215.294291,154.881038 C206.838278,131.300453 190.854781,111.901622 190.854781,111.901622 C190.854781,111.901622 169.962861,53.3486634 136.397854,27.7570706 C129.548265,29.9177274 157.373881,70.6423251 157.373881,70.6423251 C157.373881,70.6423251 110.521815,5.04915599 101.653682,0.443678161 C99.7293377,13.683376 122.187311,44.1108046 122.187311,44.1108046 C122.187311,44.1108046 82.3850066,-2.15247291 80.8761457,1.32979967 C73.4546358,7.88407225 116.397457,57.4682036 116.397457,57.4682036 C116.397457,57.4682036 115.105589,59.1193826 114.234252,58.3509622 C106.134848,51.204821 65.005351,12.4357438 59.7739603,14.3172808 C53.9807417,16.4005911 95.626649,59.8020493 95.626649,59.8020493 C95.626649,59.8020493 49.3212715,33.2352184 42.9090331,35.3672906 C38.2983444,34.0809852 46.2295364,43.5475205 54.6048079,48.3564532 C51.4205563,58.6721182 59.7638675,64.9254122 63.6159205,70.6709097 C58.0211921,73.1644926 47.7484901,69.5392972 63.8783311,87.2314614 C50.3658675,83.957688 62.7630861,100.240801 65.0810464,101.945787 C52.0328477,104.807606 66.9128742,119.389097 66.9128742,119.389097 C66.9128742,119.389097 50.7292053,121.141163 63.2525828,133.738548 C62.8522384,137.641182 61.9926755,135.319107 64.6369669,141.538772 C63.143245,142.742686 56.0110596,147.787021 65.2643974,153.244992 C63.763947,155.878135 56.3727152,158.760131 66.0062119,165.842378 C61.0103179,169.523061 61.7168079,176.551501 73.2813775,177.683113 C69.0962649,185.590949 69.4511921,188.538522 76.3310596,193.337366 C65.8480927,198.023553 78.9787152,203.454621 81.0443576,206.417327 C74.3848477,215.867048 87.8737616,219.546049 92.0740132,219.855435 C72.2317351,227.78513 91.759457,233.407882 91.759457,233.407882 C91.759457,233.407882 81.9173775,243.172033 98.6561457,247.200775 C96.4693907,250.721721 90.2674172,255.332243 105.931311,259.041511 C101.396318,263.932834 107.426715,269.103278 112.397377,270.379494 C115.024848,273.897077 118.680093,276.109859 118.680093,276.109859 C118.680093,276.109859 165.737377,251.991212 240.539536,250.437557 L240.539536,250.437557 Z M240.539536,250.437557" id="Path_3"></path>
                    </g>
                    <g transform="translate(105.000000, 529.000000)" fill="#FFFFFF">
                        <path d="M2.12239735,12.0150148 C10.4387947,1.31934319 66.1489007,-16.5392841 141.80053,42.7182003 C203.034715,90.6814187 241.784013,186.814673 256.756556,214.494621 C278.467669,254.634076 383.556384,153.920565 385.368026,155.795376 C386.436172,156.900085 386.582517,219.860112 345.552265,263.377589 C342.305775,266.510122 341.281364,264.440263 346.243616,266.738798 C360.124464,273.172007 365.709099,298.617314 375.196252,308.346154 C392.587682,326.182923 404.907523,331.017077 404.907523,331.017077 C402.529007,336.638148 369.60657,344.465274 341.007179,328.932085 C312.407788,313.400578 272.073934,265.15824 254.63204,254.084243 C237.190146,243.010246 108.64596,198.764703 56.2109404,140.696 C21.3910728,96.3983317 -6.19231788,22.7090049 2.12239735,12.0150148 L2.12239735,12.0150148 Z M2.12239735,12.0150148" id="Path_1_2_"></path>
                        <path d="M178.068702,54.3689327 C187.101682,53.9183054 270.686185,57.0054384 290.207179,79.7150345 C309.728172,102.424631 245.191987,120.720433 259.538781,176.783172 C257.405854,186.300151 234.702291,116.256197 178.068702,54.3689327 L178.068702,54.3689327 Z M178.068702,54.3689327" id="Path_2_1_"></path>
                        <path d="M117.850517,208.813018 C108.080768,215.838095 117.419894,275.117438 143.016702,292.199238 C156.473656,280.755323 149.494543,279.837255 154.625007,271.599856 C164.241682,261.546496 159.175139,261.916414 163.806013,252.540677 C164.810238,245.038069 171.68506,239.585143 171.949152,235.134358 C149.346517,226.004112 150.651841,226.136946 117.850517,208.813018 L117.850517,208.813018 Z M117.850517,208.813018" id="Path_3_1_"></path>
                        <path d="M41.0197219,145.965649 C41.0197219,145.965649 49.897947,163.482943 87.8112318,191.374752 C90.6119603,201.305366 85.2258146,221.77864 73.9085166,221.158187 C57.8745563,212.396177 54.1099735,193.288236 51.309245,186.873524 C34.2592848,174.486319 41.0197219,145.965649 41.0197219,145.965649 L41.0197219,145.965649 Z M41.0197219,145.965649" id="Path_4"></path>
                    </g>
                </g>
            </g>
        </g>
    </g>
</svg>